<?xml version="1.0" encoding="UTF-8" standalone="no"?>
<!-- This is a Stata 17.0 generated SVG file (http://www.stata.com) -->

<svg version="1.1" width="600px" height="436px" viewBox="0 0 3960 2880" xmlns="http://www.w3.org/2000/svg" xmlns:xlink="http://www.w3.org/1999/xlink">
	<desc>Stata Graph - Graph</desc>
	<rect x="0" y="0" width="3960" height="2880" style="fill:#EAF2F3;stroke:none"/>
	<rect x="0.00" y="0.00" width="3959.88" height="2880.00" style="fill:#EAF2F3"/>
	<rect x="2.88" y="2.88" width="3954.12" height="2874.24" style="fill:none;stroke:#EAF2F3;stroke-width:5.76"/>
	<rect x="290.81" y="100.86" width="3568.21" height="2132.77" style="fill:#FFFFFF"/>
	<rect x="293.69" y="103.74" width="3562.45" height="2127.01" style="fill:none;stroke:#FFFFFF;stroke-width:5.76"/>
	<line x1="290.81" y1="2170.27" x2="3859.02" y2="2170.27" style="stroke:#EAF2F3;stroke-width:8.64"/>
	<line x1="290.81" y1="1708.30" x2="3859.02" y2="1708.30" style="stroke:#EAF2F3;stroke-width:8.64"/>
	<line x1="290.81" y1="1246.20" x2="3859.02" y2="1246.20" style="stroke:#EAF2F3;stroke-width:8.64"/>
	<line x1="290.81" y1="784.23" x2="3859.02" y2="784.23" style="stroke:#EAF2F3;stroke-width:8.64"/>
	<line x1="290.81" y1="322.13" x2="3859.02" y2="322.13" style="stroke:#EAF2F3;stroke-width:8.64"/>
	<circle cx="354.05" cy="164.22" r="26.35" style="fill:#1A476F"/>
	<circle cx="354.05" cy="164.22" r="22.03" style="fill:none;stroke:#1A476F;stroke-width:8.64"/>
	<circle cx="393.03" cy="456.03" r="26.35" style="fill:#1A476F"/>
	<circle cx="393.03" cy="456.03" r="22.03" style="fill:none;stroke:#1A476F;stroke-width:8.64"/>
	<circle cx="431.89" cy="698.47" r="26.35" style="fill:#1A476F"/>
	<circle cx="431.89" cy="698.47" r="22.03" style="fill:none;stroke:#1A476F;stroke-width:8.64"/>
	<circle cx="470.62" cy="893.50" r="26.35" style="fill:#1A476F"/>
	<circle cx="470.62" cy="893.50" r="22.03" style="fill:none;stroke:#1A476F;stroke-width:8.64"/>
	<circle cx="509.23" cy="1045.47" r="26.35" style="fill:#1A476F"/>
	<circle cx="509.23" cy="1045.47" r="22.03" style="fill:none;stroke:#1A476F;stroke-width:8.64"/>
	<circle cx="547.84" cy="1160.44" r="26.35" style="fill:#1A476F"/>
	<circle cx="547.84" cy="1160.44" r="22.03" style="fill:none;stroke:#1A476F;stroke-width:8.64"/>
	<circle cx="586.33" cy="1244.72" r="26.35" style="fill:#1A476F"/>
	<circle cx="586.33" cy="1244.72" r="22.03" style="fill:none;stroke:#1A476F;stroke-width:8.64"/>
	<circle cx="624.69" cy="1304.49" r="26.35" style="fill:#1A476F"/>
	<circle cx="624.69" cy="1304.49" r="22.03" style="fill:none;stroke:#1A476F;stroke-width:8.64"/>
	<circle cx="662.93" cy="1344.96" r="26.35" style="fill:#1A476F"/>
	<circle cx="662.93" cy="1344.96" r="22.03" style="fill:none;stroke:#1A476F;stroke-width:8.64"/>
	<circle cx="701.04" cy="1370.70" r="26.35" style="fill:#1A476F"/>
	<circle cx="701.04" cy="1370.70" r="22.03" style="fill:none;stroke:#1A476F;stroke-width:8.64"/>
	<circle cx="739.16" cy="1384.93" r="26.35" style="fill:#1A476F"/>
	<circle cx="739.16" cy="1384.93" r="22.03" style="fill:none;stroke:#1A476F;stroke-width:8.64"/>
	<circle cx="777.15" cy="1390.25" r="26.35" style="fill:#1A476F"/>
	<circle cx="777.15" cy="1390.25" r="22.03" style="fill:none;stroke:#1A476F;stroke-width:8.64"/>
	<circle cx="815.02" cy="1389.01" r="26.35" style="fill:#1A476F"/>
	<circle cx="815.02" cy="1389.01" r="22.03" style="fill:none;stroke:#1A476F;stroke-width:8.64"/>
	<circle cx="852.76" cy="1382.95" r="26.35" style="fill:#1A476F"/>
	<circle cx="852.76" cy="1382.95" r="22.03" style="fill:none;stroke:#1A476F;stroke-width:8.64"/>
	<circle cx="890.38" cy="1373.92" r="26.35" style="fill:#1A476F"/>
	<circle cx="890.38" cy="1373.92" r="22.03" style="fill:none;stroke:#1A476F;stroke-width:8.64"/>
	<circle cx="928.00" cy="1362.90" r="26.35" style="fill:#1A476F"/>
	<circle cx="928.00" cy="1362.90" r="22.03" style="fill:none;stroke:#1A476F;stroke-width:8.64"/>
	<circle cx="965.50" cy="1350.77" r="26.35" style="fill:#1A476F"/>
	<circle cx="965.50" cy="1350.77" r="22.03" style="fill:none;stroke:#1A476F;stroke-width:8.64"/>
	<circle cx="1002.87" cy="1338.03" r="26.35" style="fill:#1A476F"/>
	<circle cx="1002.87" cy="1338.03" r="22.03" style="fill:none;stroke:#1A476F;stroke-width:8.64"/>
	<circle cx="1040.24" cy="1324.66" r="26.35" style="fill:#1A476F"/>
	<circle cx="1040.24" cy="1324.66" r="22.03" style="fill:none;stroke:#1A476F;stroke-width:8.64"/>
	<circle cx="1077.37" cy="1310.43" r="26.35" style="fill:#1A476F"/>
	<circle cx="1077.37" cy="1310.43" r="22.03" style="fill:none;stroke:#1A476F;stroke-width:8.64"/>
	<circle cx="1114.49" cy="1295.21" r="26.35" style="fill:#1A476F"/>
	<circle cx="1114.49" cy="1295.21" r="22.03" style="fill:none;stroke:#1A476F;stroke-width:8.64"/>
	<circle cx="1151.49" cy="1279.00" r="26.35" style="fill:#1A476F"/>
	<circle cx="1151.49" cy="1279.00" r="22.03" style="fill:none;stroke:#1A476F;stroke-width:8.64"/>
	<circle cx="1188.37" cy="1262.04" r="26.35" style="fill:#1A476F"/>
	<circle cx="1188.37" cy="1262.04" r="22.03" style="fill:none;stroke:#1A476F;stroke-width:8.64"/>
	<circle cx="1225.25" cy="1244.84" r="26.35" style="fill:#1A476F"/>
	<circle cx="1225.25" cy="1244.84" r="22.03" style="fill:none;stroke:#1A476F;stroke-width:8.64"/>
	<circle cx="1262.00" cy="1228.26" r="26.35" style="fill:#1A476F"/>
	<circle cx="1262.00" cy="1228.26" r="22.03" style="fill:none;stroke:#1A476F;stroke-width:8.64"/>
	<circle cx="1298.63" cy="1212.54" r="26.35" style="fill:#1A476F"/>
	<circle cx="1298.63" cy="1212.54" r="22.03" style="fill:none;stroke:#1A476F;stroke-width:8.64"/>
	<circle cx="1335.14" cy="1198.31" r="26.35" style="fill:#1A476F"/>
	<circle cx="1335.14" cy="1198.31" r="22.03" style="fill:none;stroke:#1A476F;stroke-width:8.64"/>
	<circle cx="1371.52" cy="1185.56" r="26.35" style="fill:#1A476F"/>
	<circle cx="1371.52" cy="1185.56" r="22.03" style="fill:none;stroke:#1A476F;stroke-width:8.64"/>
	<circle cx="1407.90" cy="1174.18" r="26.35" style="fill:#1A476F"/>
	<circle cx="1407.90" cy="1174.18" r="22.03" style="fill:none;stroke:#1A476F;stroke-width:8.64"/>
	<circle cx="1444.16" cy="1163.66" r="26.35" style="fill:#1A476F"/>
	<circle cx="1444.16" cy="1163.66" r="22.03" style="fill:none;stroke:#1A476F;stroke-width:8.64"/>
	<circle cx="1480.42" cy="1153.39" r="26.35" style="fill:#1A476F"/>
	<circle cx="1480.42" cy="1153.39" r="22.03" style="fill:none;stroke:#1A476F;stroke-width:8.64"/>
	<circle cx="1516.43" cy="1143.11" r="26.35" style="fill:#1A476F"/>
	<circle cx="1516.43" cy="1143.11" r="22.03" style="fill:none;stroke:#1A476F;stroke-width:8.64"/>
	<circle cx="1552.44" cy="1132.47" r="26.35" style="fill:#1A476F"/>
	<circle cx="1552.44" cy="1132.47" r="22.03" style="fill:none;stroke:#1A476F;stroke-width:8.64"/>
	<circle cx="1588.33" cy="1121.46" r="26.35" style="fill:#1A476F"/>
	<circle cx="1588.33" cy="1121.46" r="22.03" style="fill:none;stroke:#1A476F;stroke-width:8.64"/>
	<circle cx="1624.10" cy="1110.07" r="26.35" style="fill:#1A476F"/>
	<circle cx="1624.10" cy="1110.07" r="22.03" style="fill:none;stroke:#1A476F;stroke-width:8.64"/>
	<circle cx="1659.86" cy="1098.81" r="26.35" style="fill:#1A476F"/>
	<circle cx="1659.86" cy="1098.81" r="22.03" style="fill:none;stroke:#1A476F;stroke-width:8.64"/>
	<circle cx="1695.50" cy="1087.67" r="26.35" style="fill:#1A476F"/>
	<circle cx="1695.50" cy="1087.67" r="22.03" style="fill:none;stroke:#1A476F;stroke-width:8.64"/>
	<circle cx="1731.02" cy="1076.91" r="26.35" style="fill:#1A476F"/>
	<circle cx="1731.02" cy="1076.91" r="22.03" style="fill:none;stroke:#1A476F;stroke-width:8.64"/>
	<circle cx="1766.41" cy="1066.51" r="26.35" style="fill:#1A476F"/>
	<circle cx="1766.41" cy="1066.51" r="22.03" style="fill:none;stroke:#1A476F;stroke-width:8.64"/>
	<circle cx="1801.80" cy="1056.61" r="26.35" style="fill:#1A476F"/>
	<circle cx="1801.80" cy="1056.61" r="22.03" style="fill:none;stroke:#1A476F;stroke-width:8.64"/>
	<circle cx="1837.07" cy="1046.83" r="26.35" style="fill:#1A476F"/>
	<circle cx="1837.07" cy="1046.83" r="22.03" style="fill:none;stroke:#1A476F;stroke-width:8.64"/>
	<circle cx="1872.21" cy="1036.93" r="26.35" style="fill:#1A476F"/>
	<circle cx="1872.21" cy="1036.93" r="22.03" style="fill:none;stroke:#1A476F;stroke-width:8.64"/>
	<circle cx="1907.24" cy="1026.41" r="26.35" style="fill:#1A476F"/>
	<circle cx="1907.24" cy="1026.41" r="22.03" style="fill:none;stroke:#1A476F;stroke-width:8.64"/>
	<circle cx="1942.26" cy="1014.91" r="26.35" style="fill:#1A476F"/>
	<circle cx="1942.26" cy="1014.91" r="22.03" style="fill:none;stroke:#1A476F;stroke-width:8.64"/>
	<circle cx="1977.15" cy="1002.16" r="26.35" style="fill:#1A476F"/>
	<circle cx="1977.15" cy="1002.16" r="22.03" style="fill:none;stroke:#1A476F;stroke-width:8.64"/>
	<circle cx="2011.93" cy="988.30" r="26.35" style="fill:#1A476F"/>
	<circle cx="2011.93" cy="988.30" r="22.03" style="fill:none;stroke:#1A476F;stroke-width:8.64"/>
	<circle cx="2046.70" cy="973.82" r="26.35" style="fill:#1A476F"/>
	<circle cx="2046.70" cy="973.82" r="22.03" style="fill:none;stroke:#1A476F;stroke-width:8.64"/>
	<circle cx="2081.35" cy="959.34" r="26.35" style="fill:#1A476F"/>
	<circle cx="2081.35" cy="959.34" r="22.03" style="fill:none;stroke:#1A476F;stroke-width:8.64"/>
	<circle cx="2115.88" cy="945.36" r="26.35" style="fill:#1A476F"/>
	<circle cx="2115.88" cy="945.36" r="22.03" style="fill:none;stroke:#1A476F;stroke-width:8.64"/>
	<circle cx="2150.28" cy="932.49" r="26.35" style="fill:#1A476F"/>
	<circle cx="2150.28" cy="932.49" r="22.03" style="fill:none;stroke:#1A476F;stroke-width:8.64"/>
	<circle cx="2184.68" cy="920.98" r="26.35" style="fill:#1A476F"/>
	<circle cx="2184.68" cy="920.98" r="22.03" style="fill:none;stroke:#1A476F;stroke-width:8.64"/>
	<circle cx="2218.96" cy="910.83" r="26.35" style="fill:#1A476F"/>
	<circle cx="2218.96" cy="910.83" r="22.03" style="fill:none;stroke:#1A476F;stroke-width:8.64"/>
	<circle cx="2253.12" cy="902.17" r="26.35" style="fill:#1A476F"/>
	<circle cx="2253.12" cy="902.17" r="22.03" style="fill:none;stroke:#1A476F;stroke-width:8.64"/>
	<circle cx="2287.27" cy="894.74" r="26.35" style="fill:#1A476F"/>
	<circle cx="2287.27" cy="894.74" r="22.03" style="fill:none;stroke:#1A476F;stroke-width:8.64"/>
	<circle cx="2321.30" cy="888.43" r="26.35" style="fill:#1A476F"/>
	<circle cx="2321.30" cy="888.43" r="22.03" style="fill:none;stroke:#1A476F;stroke-width:8.64"/>
	<circle cx="2355.21" cy="882.98" r="26.35" style="fill:#1A476F"/>
	<circle cx="2355.21" cy="882.98" r="22.03" style="fill:none;stroke:#1A476F;stroke-width:8.64"/>
	<circle cx="2388.99" cy="878.16" r="26.35" style="fill:#1A476F"/>
	<circle cx="2388.99" cy="878.16" r="22.03" style="fill:none;stroke:#1A476F;stroke-width:8.64"/>
	<circle cx="2422.78" cy="873.70" r="26.35" style="fill:#1A476F"/>
	<circle cx="2422.78" cy="873.70" r="22.03" style="fill:none;stroke:#1A476F;stroke-width:8.64"/>
	<circle cx="2456.44" cy="869.00" r="26.35" style="fill:#1A476F"/>
	<circle cx="2456.44" cy="869.00" r="22.03" style="fill:none;stroke:#1A476F;stroke-width:8.64"/>
	<circle cx="2489.97" cy="863.80" r="26.35" style="fill:#1A476F"/>
	<circle cx="2489.97" cy="863.80" r="22.03" style="fill:none;stroke:#1A476F;stroke-width:8.64"/>
	<circle cx="2523.51" cy="857.24" r="26.35" style="fill:#1A476F"/>
	<circle cx="2523.51" cy="857.24" r="22.03" style="fill:none;stroke:#1A476F;stroke-width:8.64"/>
	<circle cx="2556.92" cy="848.95" r="26.35" style="fill:#1A476F"/>
	<circle cx="2556.92" cy="848.95" r="22.03" style="fill:none;stroke:#1A476F;stroke-width:8.64"/>
	<circle cx="2590.21" cy="838.68" r="26.35" style="fill:#1A476F"/>
	<circle cx="2590.21" cy="838.68" r="22.03" style="fill:none;stroke:#1A476F;stroke-width:8.64"/>
	<circle cx="2623.50" cy="826.43" r="26.35" style="fill:#1A476F"/>
	<circle cx="2623.50" cy="826.43" r="22.03" style="fill:none;stroke:#1A476F;stroke-width:8.64"/>
	<circle cx="2656.67" cy="812.69" r="26.35" style="fill:#1A476F"/>
	<circle cx="2656.67" cy="812.69" r="22.03" style="fill:none;stroke:#1A476F;stroke-width:8.64"/>
	<circle cx="2689.71" cy="798.09" r="26.35" style="fill:#1A476F"/>
	<circle cx="2689.71" cy="798.09" r="22.03" style="fill:none;stroke:#1A476F;stroke-width:8.64"/>
	<circle cx="2722.75" cy="783.36" r="26.35" style="fill:#1A476F"/>
	<circle cx="2722.75" cy="783.36" r="22.03" style="fill:none;stroke:#1A476F;stroke-width:8.64"/>
	<circle cx="2755.67" cy="769.25" r="26.35" style="fill:#1A476F"/>
	<circle cx="2755.67" cy="769.25" r="22.03" style="fill:none;stroke:#1A476F;stroke-width:8.64"/>
	<circle cx="2788.46" cy="756.38" r="26.35" style="fill:#1A476F"/>
	<circle cx="2788.46" cy="756.38" r="22.03" style="fill:none;stroke:#1A476F;stroke-width:8.64"/>
	<circle cx="2821.25" cy="745.00" r="26.35" style="fill:#1A476F"/>
	<circle cx="2821.25" cy="745.00" r="22.03" style="fill:none;stroke:#1A476F;stroke-width:8.64"/>
	<circle cx="2853.80" cy="735.35" r="26.35" style="fill:#1A476F"/>
	<circle cx="2853.80" cy="735.35" r="22.03" style="fill:none;stroke:#1A476F;stroke-width:8.64"/>
	<circle cx="2886.47" cy="727.30" r="26.35" style="fill:#1A476F"/>
	<circle cx="2886.47" cy="727.30" r="22.03" style="fill:none;stroke:#1A476F;stroke-width:8.64"/>
	<circle cx="2918.89" cy="720.74" r="26.35" style="fill:#1A476F"/>
	<circle cx="2918.89" cy="720.74" r="22.03" style="fill:none;stroke:#1A476F;stroke-width:8.64"/>
	<circle cx="2951.31" cy="715.17" r="26.35" style="fill:#1A476F"/>
	<circle cx="2951.31" cy="715.17" r="22.03" style="fill:none;stroke:#1A476F;stroke-width:8.64"/>
	<circle cx="2983.61" cy="710.59" r="26.35" style="fill:#1A476F"/>
	<circle cx="2983.61" cy="710.59" r="22.03" style="fill:none;stroke:#1A476F;stroke-width:8.64"/>
	<circle cx="3015.91" cy="706.39" r="26.35" style="fill:#1A476F"/>
	<circle cx="3015.91" cy="706.39" r="22.03" style="fill:none;stroke:#1A476F;stroke-width:8.64"/>
	<circle cx="3048.09" cy="702.43" r="26.35" style="fill:#1A476F"/>
	<circle cx="3048.09" cy="702.43" r="22.03" style="fill:none;stroke:#1A476F;stroke-width:8.64"/>
	<circle cx="3080.14" cy="698.34" r="26.35" style="fill:#1A476F"/>
	<circle cx="3080.14" cy="698.34" r="22.03" style="fill:none;stroke:#1A476F;stroke-width:8.64"/>
	<circle cx="3112.07" cy="693.39" r="26.35" style="fill:#1A476F"/>
	<circle cx="3112.07" cy="693.39" r="22.03" style="fill:none;stroke:#1A476F;stroke-width:8.64"/>
	<circle cx="3143.99" cy="687.08" r="26.35" style="fill:#1A476F"/>
	<circle cx="3143.99" cy="687.08" r="22.03" style="fill:none;stroke:#1A476F;stroke-width:8.64"/>
	<circle cx="3175.80" cy="678.79" r="26.35" style="fill:#1A476F"/>
	<circle cx="3175.80" cy="678.79" r="22.03" style="fill:none;stroke:#1A476F;stroke-width:8.64"/>
	<circle cx="3207.60" cy="667.90" r="26.35" style="fill:#1A476F"/>
	<circle cx="3207.60" cy="667.90" r="22.03" style="fill:none;stroke:#1A476F;stroke-width:8.64"/>
	<circle cx="3239.28" cy="654.29" r="26.35" style="fill:#1A476F"/>
	<circle cx="3239.28" cy="654.29" r="22.03" style="fill:none;stroke:#1A476F;stroke-width:8.64"/>
	<circle cx="3270.84" cy="637.83" r="26.35" style="fill:#1A476F"/>
	<circle cx="3270.84" cy="637.83" r="22.03" style="fill:none;stroke:#1A476F;stroke-width:8.64"/>
	<circle cx="3302.39" cy="619.14" r="26.35" style="fill:#1A476F"/>
	<circle cx="3302.39" cy="619.14" r="22.03" style="fill:none;stroke:#1A476F;stroke-width:8.64"/>
	<circle cx="3333.83" cy="598.47" r="26.35" style="fill:#1A476F"/>
	<circle cx="3333.83" cy="598.47" r="22.03" style="fill:none;stroke:#1A476F;stroke-width:8.64"/>
	<circle cx="3365.13" cy="576.82" r="26.35" style="fill:#1A476F"/>
	<circle cx="3365.13" cy="576.82" r="22.03" style="fill:none;stroke:#1A476F;stroke-width:8.64"/>
	<circle cx="3396.44" cy="554.79" r="26.35" style="fill:#1A476F"/>
	<circle cx="3396.44" cy="554.79" r="22.03" style="fill:none;stroke:#1A476F;stroke-width:8.64"/>
	<circle cx="3427.63" cy="533.38" r="26.35" style="fill:#1A476F"/>
	<circle cx="3427.63" cy="533.38" r="22.03" style="fill:none;stroke:#1A476F;stroke-width:8.64"/>
	<circle cx="3458.69" cy="513.83" r="26.35" style="fill:#1A476F"/>
	<circle cx="3458.69" cy="513.83" r="22.03" style="fill:none;stroke:#1A476F;stroke-width:8.64"/>
	<circle cx="3489.75" cy="497.49" r="26.35" style="fill:#1A476F"/>
	<circle cx="3489.75" cy="497.49" r="22.03" style="fill:none;stroke:#1A476F;stroke-width:8.64"/>
	<circle cx="3520.69" cy="485.98" r="26.35" style="fill:#1A476F"/>
	<circle cx="3520.69" cy="485.98" r="22.03" style="fill:none;stroke:#1A476F;stroke-width:8.64"/>
	<circle cx="3551.50" cy="480.66" r="26.35" style="fill:#1A476F"/>
	<circle cx="3551.50" cy="480.66" r="22.03" style="fill:none;stroke:#1A476F;stroke-width:8.64"/>
	<circle cx="3582.32" cy="483.26" r="26.35" style="fill:#1A476F"/>
	<circle cx="3582.32" cy="483.26" r="22.03" style="fill:none;stroke:#1A476F;stroke-width:8.64"/>
	<circle cx="3613.01" cy="495.02" r="26.35" style="fill:#1A476F"/>
	<circle cx="3613.01" cy="495.02" r="22.03" style="fill:none;stroke:#1A476F;stroke-width:8.64"/>
	<circle cx="3643.70" cy="517.54" r="26.35" style="fill:#1A476F"/>
	<circle cx="3643.70" cy="517.54" r="22.03" style="fill:none;stroke:#1A476F;stroke-width:8.64"/>
	<circle cx="3674.26" cy="551.94" r="26.35" style="fill:#1A476F"/>
	<circle cx="3674.26" cy="551.94" r="22.03" style="fill:none;stroke:#1A476F;stroke-width:8.64"/>
	<circle cx="3704.70" cy="599.96" r="26.35" style="fill:#1A476F"/>
	<circle cx="3704.70" cy="599.96" r="22.03" style="fill:none;stroke:#1A476F;stroke-width:8.64"/>
	<circle cx="3735.15" cy="663.07" r="26.35" style="fill:#1A476F"/>
	<circle cx="3735.15" cy="663.07" r="22.03" style="fill:none;stroke:#1A476F;stroke-width:8.64"/>
	<circle cx="3765.47" cy="743.39" r="26.35" style="fill:#1A476F"/>
	<circle cx="3765.47" cy="743.39" r="22.03" style="fill:none;stroke:#1A476F;stroke-width:8.64"/>
	<circle cx="3795.66" cy="842.64" r="26.35" style="fill:#1A476F"/>
	<circle cx="3795.66" cy="842.64" r="22.03" style="fill:none;stroke:#1A476F;stroke-width:8.64"/>
	<circle cx="354.05" cy="2079.19" r="26.35" style="fill:#90353B"/>
	<circle cx="354.05" cy="2079.19" r="22.03" style="fill:none;stroke:#90353B;stroke-width:8.64"/>
	<circle cx="393.03" cy="2029.69" r="26.35" style="fill:#90353B"/>
	<circle cx="393.03" cy="2029.69" r="22.03" style="fill:none;stroke:#90353B;stroke-width:8.64"/>
	<circle cx="431.89" cy="1985.01" r="26.35" style="fill:#90353B"/>
	<circle cx="431.89" cy="1985.01" r="22.03" style="fill:none;stroke:#90353B;stroke-width:8.64"/>
	<circle cx="470.62" cy="1944.42" r="26.35" style="fill:#90353B"/>
	<circle cx="470.62" cy="1944.42" r="22.03" style="fill:none;stroke:#90353B;stroke-width:8.64"/>
	<circle cx="509.23" cy="1907.17" r="26.35" style="fill:#90353B"/>
	<circle cx="509.23" cy="1907.17" r="22.03" style="fill:none;stroke:#90353B;stroke-width:8.64"/>
	<circle cx="547.84" cy="1872.77" r="26.35" style="fill:#90353B"/>
	<circle cx="547.84" cy="1872.77" r="22.03" style="fill:none;stroke:#90353B;stroke-width:8.64"/>
	<circle cx="586.33" cy="1840.96" r="26.35" style="fill:#90353B"/>
	<circle cx="586.33" cy="1840.96" r="22.03" style="fill:none;stroke:#90353B;stroke-width:8.64"/>
	<circle cx="624.69" cy="1811.14" r="26.35" style="fill:#90353B"/>
	<circle cx="624.69" cy="1811.14" r="22.03" style="fill:none;stroke:#90353B;stroke-width:8.64"/>
	<circle cx="662.93" cy="1783.29" r="26.35" style="fill:#90353B"/>
	<circle cx="662.93" cy="1783.29" r="22.03" style="fill:none;stroke:#90353B;stroke-width:8.64"/>
	<circle cx="701.04" cy="1757.06" r="26.35" style="fill:#90353B"/>
	<circle cx="701.04" cy="1757.06" r="22.03" style="fill:none;stroke:#90353B;stroke-width:8.64"/>
	<circle cx="739.16" cy="1732.18" r="26.35" style="fill:#90353B"/>
	<circle cx="739.16" cy="1732.18" r="22.03" style="fill:none;stroke:#90353B;stroke-width:8.64"/>
	<circle cx="777.15" cy="1708.79" r="26.35" style="fill:#90353B"/>
	<circle cx="777.15" cy="1708.79" r="22.03" style="fill:none;stroke:#90353B;stroke-width:8.64"/>
	<circle cx="815.02" cy="1686.52" r="26.35" style="fill:#90353B"/>
	<circle cx="815.02" cy="1686.52" r="22.03" style="fill:none;stroke:#90353B;stroke-width:8.64"/>
	<circle cx="852.76" cy="1665.36" r="26.35" style="fill:#90353B"/>
	<circle cx="852.76" cy="1665.36" r="22.03" style="fill:none;stroke:#90353B;stroke-width:8.64"/>
	<circle cx="890.38" cy="1645.18" r="26.35" style="fill:#90353B"/>
	<circle cx="890.38" cy="1645.18" r="22.03" style="fill:none;stroke:#90353B;stroke-width:8.64"/>
	<circle cx="928.00" cy="1625.75" r="26.35" style="fill:#90353B"/>
	<circle cx="928.00" cy="1625.75" r="22.03" style="fill:none;stroke:#90353B;stroke-width:8.64"/>
	<circle cx="965.50" cy="1607.32" r="26.35" style="fill:#90353B"/>
	<circle cx="965.50" cy="1607.32" r="22.03" style="fill:none;stroke:#90353B;stroke-width:8.64"/>
	<circle cx="1002.87" cy="1589.62" r="26.35" style="fill:#90353B"/>
	<circle cx="1002.87" cy="1589.62" r="22.03" style="fill:none;stroke:#90353B;stroke-width:8.64"/>
	<circle cx="1040.24" cy="1572.54" r="26.35" style="fill:#90353B"/>
	<circle cx="1040.24" cy="1572.54" r="22.03" style="fill:none;stroke:#90353B;stroke-width:8.64"/>
	<circle cx="1077.37" cy="1556.20" r="26.35" style="fill:#90353B"/>
	<circle cx="1077.37" cy="1556.20" r="22.03" style="fill:none;stroke:#90353B;stroke-width:8.64"/>
	<circle cx="1114.49" cy="1540.36" r="26.35" style="fill:#90353B"/>
	<circle cx="1114.49" cy="1540.36" r="22.03" style="fill:none;stroke:#90353B;stroke-width:8.64"/>
	<circle cx="1151.49" cy="1525.14" r="26.35" style="fill:#90353B"/>
	<circle cx="1151.49" cy="1525.14" r="22.03" style="fill:none;stroke:#90353B;stroke-width:8.64"/>
	<circle cx="1188.37" cy="1510.42" r="26.35" style="fill:#90353B"/>
	<circle cx="1188.37" cy="1510.42" r="22.03" style="fill:none;stroke:#90353B;stroke-width:8.64"/>
	<circle cx="1225.25" cy="1496.18" r="26.35" style="fill:#90353B"/>
	<circle cx="1225.25" cy="1496.18" r="22.03" style="fill:none;stroke:#90353B;stroke-width:8.64"/>
	<circle cx="1262.00" cy="1482.45" r="26.35" style="fill:#90353B"/>
	<circle cx="1262.00" cy="1482.45" r="22.03" style="fill:none;stroke:#90353B;stroke-width:8.64"/>
	<circle cx="1298.63" cy="1469.21" r="26.35" style="fill:#90353B"/>
	<circle cx="1298.63" cy="1469.21" r="22.03" style="fill:none;stroke:#90353B;stroke-width:8.64"/>
	<circle cx="1335.14" cy="1456.21" r="26.35" style="fill:#90353B"/>
	<circle cx="1335.14" cy="1456.21" r="22.03" style="fill:none;stroke:#90353B;stroke-width:8.64"/>
	<circle cx="1371.52" cy="1443.71" r="26.35" style="fill:#90353B"/>
	<circle cx="1371.52" cy="1443.71" r="22.03" style="fill:none;stroke:#90353B;stroke-width:8.64"/>
	<circle cx="1407.90" cy="1431.46" r="26.35" style="fill:#90353B"/>
	<circle cx="1407.90" cy="1431.46" r="22.03" style="fill:none;stroke:#90353B;stroke-width:8.64"/>
	<circle cx="1444.16" cy="1419.70" r="26.35" style="fill:#90353B"/>
	<circle cx="1444.16" cy="1419.70" r="22.03" style="fill:none;stroke:#90353B;stroke-width:8.64"/>
	<circle cx="1480.42" cy="1408.20" r="26.35" style="fill:#90353B"/>
	<circle cx="1480.42" cy="1408.20" r="22.03" style="fill:none;stroke:#90353B;stroke-width:8.64"/>
	<circle cx="1516.43" cy="1396.93" r="26.35" style="fill:#90353B"/>
	<circle cx="1516.43" cy="1396.93" r="22.03" style="fill:none;stroke:#90353B;stroke-width:8.64"/>
	<circle cx="1552.44" cy="1386.04" r="26.35" style="fill:#90353B"/>
	<circle cx="1552.44" cy="1386.04" r="22.03" style="fill:none;stroke:#90353B;stroke-width:8.64"/>
	<circle cx="1588.33" cy="1375.40" r="26.35" style="fill:#90353B"/>
	<circle cx="1588.33" cy="1375.40" r="22.03" style="fill:none;stroke:#90353B;stroke-width:8.64"/>
	<circle cx="1624.10" cy="1365.13" r="26.35" style="fill:#90353B"/>
	<circle cx="1624.10" cy="1365.13" r="22.03" style="fill:none;stroke:#90353B;stroke-width:8.64"/>
	<circle cx="1659.86" cy="1354.98" r="26.35" style="fill:#90353B"/>
	<circle cx="1659.86" cy="1354.98" r="22.03" style="fill:none;stroke:#90353B;stroke-width:8.64"/>
	<circle cx="1695.50" cy="1345.08" r="26.35" style="fill:#90353B"/>
	<circle cx="1695.50" cy="1345.08" r="22.03" style="fill:none;stroke:#90353B;stroke-width:8.64"/>
	<circle cx="1731.02" cy="1335.43" r="26.35" style="fill:#90353B"/>
	<circle cx="1731.02" cy="1335.43" r="22.03" style="fill:none;stroke:#90353B;stroke-width:8.64"/>
	<circle cx="1766.41" cy="1326.02" r="26.35" style="fill:#90353B"/>
	<circle cx="1766.41" cy="1326.02" r="22.03" style="fill:none;stroke:#90353B;stroke-width:8.64"/>
	<circle cx="1801.80" cy="1316.86" r="26.35" style="fill:#90353B"/>
	<circle cx="1801.80" cy="1316.86" r="22.03" style="fill:none;stroke:#90353B;stroke-width:8.64"/>
	<circle cx="1837.07" cy="1307.83" r="26.35" style="fill:#90353B"/>
	<circle cx="1837.07" cy="1307.83" r="22.03" style="fill:none;stroke:#90353B;stroke-width:8.64"/>
	<circle cx="1872.21" cy="1299.04" r="26.35" style="fill:#90353B"/>
	<circle cx="1872.21" cy="1299.04" r="22.03" style="fill:none;stroke:#90353B;stroke-width:8.64"/>
	<circle cx="1907.24" cy="1290.38" r="26.35" style="fill:#90353B"/>
	<circle cx="1907.24" cy="1290.38" r="22.03" style="fill:none;stroke:#90353B;stroke-width:8.64"/>
	<circle cx="1942.26" cy="1281.97" r="26.35" style="fill:#90353B"/>
	<circle cx="1942.26" cy="1281.97" r="22.03" style="fill:none;stroke:#90353B;stroke-width:8.64"/>
	<circle cx="1977.15" cy="1273.67" r="26.35" style="fill:#90353B"/>
	<circle cx="1977.15" cy="1273.67" r="22.03" style="fill:none;stroke:#90353B;stroke-width:8.64"/>
	<circle cx="2011.93" cy="1265.63" r="26.35" style="fill:#90353B"/>
	<circle cx="2011.93" cy="1265.63" r="22.03" style="fill:none;stroke:#90353B;stroke-width:8.64"/>
	<circle cx="2046.70" cy="1257.71" r="26.35" style="fill:#90353B"/>
	<circle cx="2046.70" cy="1257.71" r="22.03" style="fill:none;stroke:#90353B;stroke-width:8.64"/>
	<circle cx="2081.35" cy="1249.91" r="26.35" style="fill:#90353B"/>
	<circle cx="2081.35" cy="1249.91" r="22.03" style="fill:none;stroke:#90353B;stroke-width:8.64"/>
	<circle cx="2115.88" cy="1242.24" r="26.35" style="fill:#90353B"/>
	<circle cx="2115.88" cy="1242.24" r="22.03" style="fill:none;stroke:#90353B;stroke-width:8.64"/>
	<circle cx="2150.28" cy="1234.69" r="26.35" style="fill:#90353B"/>
	<circle cx="2150.28" cy="1234.69" r="22.03" style="fill:none;stroke:#90353B;stroke-width:8.64"/>
	<circle cx="2184.68" cy="1227.39" r="26.35" style="fill:#90353B"/>
	<circle cx="2184.68" cy="1227.39" r="22.03" style="fill:none;stroke:#90353B;stroke-width:8.64"/>
	<circle cx="2218.96" cy="1220.09" r="26.35" style="fill:#90353B"/>
	<circle cx="2218.96" cy="1220.09" r="22.03" style="fill:none;stroke:#90353B;stroke-width:8.64"/>
	<circle cx="2253.12" cy="1213.04" r="26.35" style="fill:#90353B"/>
	<circle cx="2253.12" cy="1213.04" r="22.03" style="fill:none;stroke:#90353B;stroke-width:8.64"/>
	<circle cx="2287.27" cy="1206.11" r="26.35" style="fill:#90353B"/>
	<circle cx="2287.27" cy="1206.11" r="22.03" style="fill:none;stroke:#90353B;stroke-width:8.64"/>
	<circle cx="2321.30" cy="1199.17" r="26.35" style="fill:#90353B"/>
	<circle cx="2321.30" cy="1199.17" r="22.03" style="fill:none;stroke:#90353B;stroke-width:8.64"/>
	<circle cx="2355.21" cy="1192.49" r="26.35" style="fill:#90353B"/>
	<circle cx="2355.21" cy="1192.49" r="22.03" style="fill:none;stroke:#90353B;stroke-width:8.64"/>
	<circle cx="2388.99" cy="1185.81" r="26.35" style="fill:#90353B"/>
	<circle cx="2388.99" cy="1185.81" r="22.03" style="fill:none;stroke:#90353B;stroke-width:8.64"/>
	<circle cx="2422.78" cy="1179.37" r="26.35" style="fill:#90353B"/>
	<circle cx="2422.78" cy="1179.37" r="22.03" style="fill:none;stroke:#90353B;stroke-width:8.64"/>
	<circle cx="2456.44" cy="1172.94" r="26.35" style="fill:#90353B"/>
	<circle cx="2456.44" cy="1172.94" r="22.03" style="fill:none;stroke:#90353B;stroke-width:8.64"/>
	<circle cx="2489.97" cy="1166.63" r="26.35" style="fill:#90353B"/>
	<circle cx="2489.97" cy="1166.63" r="22.03" style="fill:none;stroke:#90353B;stroke-width:8.64"/>
	<circle cx="2523.51" cy="1160.44" r="26.35" style="fill:#90353B"/>
	<circle cx="2523.51" cy="1160.44" r="22.03" style="fill:none;stroke:#90353B;stroke-width:8.64"/>
	<circle cx="2556.92" cy="1154.38" r="26.35" style="fill:#90353B"/>
	<circle cx="2556.92" cy="1154.38" r="22.03" style="fill:none;stroke:#90353B;stroke-width:8.64"/>
	<circle cx="2590.21" cy="1148.31" r="26.35" style="fill:#90353B"/>
	<circle cx="2590.21" cy="1148.31" r="22.03" style="fill:none;stroke:#90353B;stroke-width:8.64"/>
	<circle cx="2623.50" cy="1142.37" r="26.35" style="fill:#90353B"/>
	<circle cx="2623.50" cy="1142.37" r="22.03" style="fill:none;stroke:#90353B;stroke-width:8.64"/>
	<circle cx="2656.67" cy="1136.56" r="26.35" style="fill:#90353B"/>
	<circle cx="2656.67" cy="1136.56" r="22.03" style="fill:none;stroke:#90353B;stroke-width:8.64"/>
	<circle cx="2689.71" cy="1130.86" r="26.35" style="fill:#90353B"/>
	<circle cx="2689.71" cy="1130.86" r="22.03" style="fill:none;stroke:#90353B;stroke-width:8.64"/>
	<circle cx="2722.75" cy="1125.17" r="26.35" style="fill:#90353B"/>
	<circle cx="2722.75" cy="1125.17" r="22.03" style="fill:none;stroke:#90353B;stroke-width:8.64"/>
	<circle cx="2755.67" cy="1119.60" r="26.35" style="fill:#90353B"/>
	<circle cx="2755.67" cy="1119.60" r="22.03" style="fill:none;stroke:#90353B;stroke-width:8.64"/>
	<circle cx="2788.46" cy="1114.16" r="26.35" style="fill:#90353B"/>
	<circle cx="2788.46" cy="1114.16" r="22.03" style="fill:none;stroke:#90353B;stroke-width:8.64"/>
	<circle cx="2821.25" cy="1108.71" r="26.35" style="fill:#90353B"/>
	<circle cx="2821.25" cy="1108.71" r="22.03" style="fill:none;stroke:#90353B;stroke-width:8.64"/>
	<circle cx="2853.80" cy="1103.39" r="26.35" style="fill:#90353B"/>
	<circle cx="2853.80" cy="1103.39" r="22.03" style="fill:none;stroke:#90353B;stroke-width:8.64"/>
	<circle cx="2886.47" cy="1098.19" r="26.35" style="fill:#90353B"/>
	<circle cx="2886.47" cy="1098.19" r="22.03" style="fill:none;stroke:#90353B;stroke-width:8.64"/>
	<circle cx="2918.89" cy="1092.99" r="26.35" style="fill:#90353B"/>
	<circle cx="2918.89" cy="1092.99" r="22.03" style="fill:none;stroke:#90353B;stroke-width:8.64"/>
	<circle cx="2951.31" cy="1087.80" r="26.35" style="fill:#90353B"/>
	<circle cx="2951.31" cy="1087.80" r="22.03" style="fill:none;stroke:#90353B;stroke-width:8.64"/>
	<circle cx="2983.61" cy="1082.72" r="26.35" style="fill:#90353B"/>
	<circle cx="2983.61" cy="1082.72" r="22.03" style="fill:none;stroke:#90353B;stroke-width:8.64"/>
	<circle cx="3015.91" cy="1077.77" r="26.35" style="fill:#90353B"/>
	<circle cx="3015.91" cy="1077.77" r="22.03" style="fill:none;stroke:#90353B;stroke-width:8.64"/>
	<circle cx="3048.09" cy="1072.82" r="26.35" style="fill:#90353B"/>
	<circle cx="3048.09" cy="1072.82" r="22.03" style="fill:none;stroke:#90353B;stroke-width:8.64"/>
	<circle cx="3080.14" cy="1068.00" r="26.35" style="fill:#90353B"/>
	<circle cx="3080.14" cy="1068.00" r="22.03" style="fill:none;stroke:#90353B;stroke-width:8.64"/>
	<circle cx="3112.07" cy="1063.29" r="26.35" style="fill:#90353B"/>
	<circle cx="3112.07" cy="1063.29" r="22.03" style="fill:none;stroke:#90353B;stroke-width:8.64"/>
	<circle cx="3143.99" cy="1058.47" r="26.35" style="fill:#90353B"/>
	<circle cx="3143.99" cy="1058.47" r="22.03" style="fill:none;stroke:#90353B;stroke-width:8.64"/>
	<circle cx="3175.80" cy="1053.89" r="26.35" style="fill:#90353B"/>
	<circle cx="3175.80" cy="1053.89" r="22.03" style="fill:none;stroke:#90353B;stroke-width:8.64"/>
	<circle cx="3207.60" cy="1049.19" r="26.35" style="fill:#90353B"/>
	<circle cx="3207.60" cy="1049.19" r="22.03" style="fill:none;stroke:#90353B;stroke-width:8.64"/>
	<circle cx="3239.28" cy="1044.73" r="26.35" style="fill:#90353B"/>
	<circle cx="3239.28" cy="1044.73" r="22.03" style="fill:none;stroke:#90353B;stroke-width:8.64"/>
	<circle cx="3270.84" cy="1040.15" r="26.35" style="fill:#90353B"/>
	<circle cx="3270.84" cy="1040.15" r="22.03" style="fill:none;stroke:#90353B;stroke-width:8.64"/>
	<circle cx="3302.39" cy="1035.70" r="26.35" style="fill:#90353B"/>
	<circle cx="3302.39" cy="1035.70" r="22.03" style="fill:none;stroke:#90353B;stroke-width:8.64"/>
	<circle cx="3333.83" cy="1031.36" r="26.35" style="fill:#90353B"/>
	<circle cx="3333.83" cy="1031.36" r="22.03" style="fill:none;stroke:#90353B;stroke-width:8.64"/>
	<circle cx="3365.13" cy="1027.03" r="26.35" style="fill:#90353B"/>
	<circle cx="3365.13" cy="1027.03" r="22.03" style="fill:none;stroke:#90353B;stroke-width:8.64"/>
	<circle cx="3396.44" cy="1022.70" r="26.35" style="fill:#90353B"/>
	<circle cx="3396.44" cy="1022.70" r="22.03" style="fill:none;stroke:#90353B;stroke-width:8.64"/>
	<circle cx="3427.63" cy="1018.49" r="26.35" style="fill:#90353B"/>
	<circle cx="3427.63" cy="1018.49" r="22.03" style="fill:none;stroke:#90353B;stroke-width:8.64"/>
	<circle cx="3458.69" cy="1014.29" r="26.35" style="fill:#90353B"/>
	<circle cx="3458.69" cy="1014.29" r="22.03" style="fill:none;stroke:#90353B;stroke-width:8.64"/>
	<circle cx="3489.75" cy="1010.20" r="26.35" style="fill:#90353B"/>
	<circle cx="3489.75" cy="1010.20" r="22.03" style="fill:none;stroke:#90353B;stroke-width:8.64"/>
	<circle cx="3520.69" cy="1006.12" r="26.35" style="fill:#90353B"/>
	<circle cx="3520.69" cy="1006.12" r="22.03" style="fill:none;stroke:#90353B;stroke-width:8.64"/>
	<circle cx="3551.50" cy="1002.04" r="26.35" style="fill:#90353B"/>
	<circle cx="3551.50" cy="1002.04" r="22.03" style="fill:none;stroke:#90353B;stroke-width:8.64"/>
	<circle cx="3582.32" cy="998.07" r="26.35" style="fill:#90353B"/>
	<circle cx="3582.32" cy="998.07" r="22.03" style="fill:none;stroke:#90353B;stroke-width:8.64"/>
	<circle cx="3613.01" cy="994.11" r="26.35" style="fill:#90353B"/>
	<circle cx="3613.01" cy="994.11" r="22.03" style="fill:none;stroke:#90353B;stroke-width:8.64"/>
	<circle cx="3643.70" cy="990.15" r="26.35" style="fill:#90353B"/>
	<circle cx="3643.70" cy="990.15" r="22.03" style="fill:none;stroke:#90353B;stroke-width:8.64"/>
	<circle cx="3674.26" cy="986.32" r="26.35" style="fill:#90353B"/>
	<circle cx="3674.26" cy="986.32" r="22.03" style="fill:none;stroke:#90353B;stroke-width:8.64"/>
	<circle cx="3704.70" cy="982.48" r="26.35" style="fill:#90353B"/>
	<circle cx="3704.70" cy="982.48" r="22.03" style="fill:none;stroke:#90353B;stroke-width:8.64"/>
	<circle cx="3735.15" cy="978.65" r="26.35" style="fill:#90353B"/>
	<circle cx="3735.15" cy="978.65" r="22.03" style="fill:none;stroke:#90353B;stroke-width:8.64"/>
	<circle cx="3765.47" cy="974.93" r="26.35" style="fill:#90353B"/>
	<circle cx="3765.47" cy="974.93" r="22.03" style="fill:none;stroke:#90353B;stroke-width:8.64"/>
	<circle cx="3795.66" cy="971.22" r="26.35" style="fill:#90353B"/>
	<circle cx="3795.66" cy="971.22" r="22.03" style="fill:none;stroke:#90353B;stroke-width:8.64"/>
	<line x1="290.81" y1="2233.63" x2="290.81" y2="100.86" style="stroke:#000000;stroke-width:5.76"/>
	<line x1="290.81" y1="2170.27" x2="250.84" y2="2170.27" style="stroke:#000000;stroke-width:5.76"/>
	<text x="200.73" y="2170.27" style="font-family:'Helvetica';font-size:99.99px;fill:#000000" transform="rotate(-90 200.73,2170.27)" text-anchor="middle">-8</text>
	<line x1="290.81" y1="1708.30" x2="250.84" y2="1708.30" style="stroke:#000000;stroke-width:5.76"/>
	<text x="200.73" y="1708.30" style="font-family:'Helvetica';font-size:99.99px;fill:#000000" transform="rotate(-90 200.73,1708.30)" text-anchor="middle">-6</text>
	<line x1="290.81" y1="1246.20" x2="250.84" y2="1246.20" style="stroke:#000000;stroke-width:5.76"/>
	<text x="200.73" y="1246.20" style="font-family:'Helvetica';font-size:99.99px;fill:#000000" transform="rotate(-90 200.73,1246.20)" text-anchor="middle">-4</text>
	<line x1="290.81" y1="784.23" x2="250.84" y2="784.23" style="stroke:#000000;stroke-width:5.76"/>
	<text x="200.73" y="784.23" style="font-family:'Helvetica';font-size:99.99px;fill:#000000" transform="rotate(-90 200.73,784.23)" text-anchor="middle">-2</text>
	<line x1="290.81" y1="322.13" x2="250.84" y2="322.13" style="stroke:#000000;stroke-width:5.76"/>
	<text x="200.73" y="322.13" style="font-family:'Helvetica';font-size:99.99px;fill:#000000" transform="rotate(-90 200.73,322.13)" text-anchor="middle">0</text>
	<line x1="290.81" y1="2233.63" x2="3859.02" y2="2233.63" style="stroke:#000000;stroke-width:5.76"/>
	<line x1="354.17" y1="2233.63" x2="354.17" y2="2273.73" style="stroke:#000000;stroke-width:5.76"/>
	<text x="354.17" y="2363.59" style="font-family:'Helvetica';font-size:99.99px;fill:#000000" text-anchor="middle">0</text>
	<line x1="1042.47" y1="2233.63" x2="1042.47" y2="2273.73" style="stroke:#000000;stroke-width:5.76"/>
	<text x="1042.47" y="2363.59" style="font-family:'Helvetica';font-size:99.99px;fill:#000000" text-anchor="middle">.2</text>
	<line x1="1730.77" y1="2233.63" x2="1730.77" y2="2273.73" style="stroke:#000000;stroke-width:5.76"/>
	<text x="1730.77" y="2363.59" style="font-family:'Helvetica';font-size:99.99px;fill:#000000" text-anchor="middle">.4</text>
	<line x1="2419.07" y1="2233.63" x2="2419.07" y2="2273.73" style="stroke:#000000;stroke-width:5.76"/>
	<text x="2419.07" y="2363.59" style="font-family:'Helvetica';font-size:99.99px;fill:#000000" text-anchor="middle">.6</text>
	<line x1="3107.36" y1="2233.63" x2="3107.36" y2="2273.73" style="stroke:#000000;stroke-width:5.76"/>
	<text x="3107.36" y="2363.59" style="font-family:'Helvetica';font-size:99.99px;fill:#000000" text-anchor="middle">.8</text>
	<line x1="3795.66" y1="2233.63" x2="3795.66" y2="2273.73" style="stroke:#000000;stroke-width:5.76"/>
	<text x="3795.66" y="2363.59" style="font-family:'Helvetica';font-size:99.99px;fill:#000000" text-anchor="middle">1</text>
	<text x="2074.92" y="2473.60" style="font-family:'Helvetica';font-size:99.99px;fill:#000000" text-anchor="middle">rho_points1</text>
	<rect x="1494.65" y="2558.24" width="1160.53" height="186.37" style="fill:#FFFFFF"/>
	<rect x="1497.53" y="2561.12" width="1154.77" height="180.61" style="fill:none;stroke:#000000;stroke-width:5.76"/>
	<circle cx="1559.87" cy="2651.43" r="26.35" style="fill:#1A476F"/>
	<circle cx="1559.87" cy="2651.43" r="22.03" style="fill:none;stroke:#1A476F;stroke-width:8.64"/>
	<circle cx="2302.49" cy="2651.43" r="26.35" style="fill:#90353B"/>
	<circle cx="2302.49" cy="2651.43" r="22.03" style="fill:none;stroke:#90353B;stroke-width:8.64"/>
	<text x="1641.79" y="2686.46" style="font-family:'Helvetica';font-size:99.99px;fill:#000000">y1_points1</text>
	<text x="2384.54" y="2686.46" style="font-family:'Helvetica';font-size:99.99px;fill:#000000">ytrue</text>
</svg>
