<?xml version="1.0" encoding="UTF-8" standalone="no"?>
<!-- This is a Stata 17.0 generated SVG file (http://www.stata.com) -->

<svg version="1.1" width="600px" height="436px" viewBox="0 0 3960 2880" xmlns="http://www.w3.org/2000/svg" xmlns:xlink="http://www.w3.org/1999/xlink">
	<desc>Stata Graph - Graph</desc>
	<rect x="0" y="0" width="3960" height="2880" style="fill:#EAF2F3;stroke:none"/>
	<rect x="0.00" y="0.00" width="3959.88" height="2880.00" style="fill:#EAF2F3"/>
	<rect x="2.88" y="2.88" width="3954.12" height="2874.24" style="fill:none;stroke:#EAF2F3;stroke-width:5.76"/>
	<rect x="290.81" y="100.86" width="3568.21" height="2132.77" style="fill:#FFFFFF"/>
	<rect x="293.69" y="103.74" width="3562.45" height="2127.01" style="fill:none;stroke:#FFFFFF;stroke-width:5.76"/>
	<line x1="290.81" y1="2096.64" x2="3859.02" y2="2096.64" style="stroke:#EAF2F3;stroke-width:8.64"/>
	<line x1="290.81" y1="1710.15" x2="3859.02" y2="1710.15" style="stroke:#EAF2F3;stroke-width:8.64"/>
	<line x1="290.81" y1="1323.67" x2="3859.02" y2="1323.67" style="stroke:#EAF2F3;stroke-width:8.64"/>
	<line x1="290.81" y1="937.19" x2="3859.02" y2="937.19" style="stroke:#EAF2F3;stroke-width:8.64"/>
	<line x1="290.81" y1="550.70" x2="3859.02" y2="550.70" style="stroke:#EAF2F3;stroke-width:8.64"/>
	<line x1="290.81" y1="164.22" x2="3859.02" y2="164.22" style="stroke:#EAF2F3;stroke-width:8.64"/>
	<circle cx="354.05" cy="297.38" r="26.35" style="fill:#1A476F"/>
	<circle cx="354.05" cy="297.38" r="22.03" style="fill:none;stroke:#1A476F;stroke-width:8.64"/>
	<circle cx="393.03" cy="362.35" r="26.35" style="fill:#1A476F"/>
	<circle cx="393.03" cy="362.35" r="22.03" style="fill:none;stroke:#1A476F;stroke-width:8.64"/>
	<circle cx="431.89" cy="426.46" r="26.35" style="fill:#1A476F"/>
	<circle cx="431.89" cy="426.46" r="22.03" style="fill:none;stroke:#1A476F;stroke-width:8.64"/>
	<circle cx="470.62" cy="489.08" r="26.35" style="fill:#1A476F"/>
	<circle cx="470.62" cy="489.08" r="22.03" style="fill:none;stroke:#1A476F;stroke-width:8.64"/>
	<circle cx="509.23" cy="549.34" r="26.35" style="fill:#1A476F"/>
	<circle cx="509.23" cy="549.34" r="22.03" style="fill:none;stroke:#1A476F;stroke-width:8.64"/>
	<circle cx="547.84" cy="606.52" r="26.35" style="fill:#1A476F"/>
	<circle cx="547.84" cy="606.52" r="22.03" style="fill:none;stroke:#1A476F;stroke-width:8.64"/>
	<circle cx="586.33" cy="660.60" r="26.35" style="fill:#1A476F"/>
	<circle cx="586.33" cy="660.60" r="22.03" style="fill:none;stroke:#1A476F;stroke-width:8.64"/>
	<circle cx="624.69" cy="711.71" r="26.35" style="fill:#1A476F"/>
	<circle cx="624.69" cy="711.71" r="22.03" style="fill:none;stroke:#1A476F;stroke-width:8.64"/>
	<circle cx="662.93" cy="760.34" r="26.35" style="fill:#1A476F"/>
	<circle cx="662.93" cy="760.34" r="22.03" style="fill:none;stroke:#1A476F;stroke-width:8.64"/>
	<circle cx="701.04" cy="806.50" r="26.35" style="fill:#1A476F"/>
	<circle cx="701.04" cy="806.50" r="22.03" style="fill:none;stroke:#1A476F;stroke-width:8.64"/>
	<circle cx="739.16" cy="850.44" r="26.35" style="fill:#1A476F"/>
	<circle cx="739.16" cy="850.44" r="22.03" style="fill:none;stroke:#1A476F;stroke-width:8.64"/>
	<circle cx="777.15" cy="892.27" r="26.35" style="fill:#1A476F"/>
	<circle cx="777.15" cy="892.27" r="22.03" style="fill:none;stroke:#1A476F;stroke-width:8.64"/>
	<circle cx="815.02" cy="931.87" r="26.35" style="fill:#1A476F"/>
	<circle cx="815.02" cy="931.87" r="22.03" style="fill:none;stroke:#1A476F;stroke-width:8.64"/>
	<circle cx="852.76" cy="969.49" r="26.35" style="fill:#1A476F"/>
	<circle cx="852.76" cy="969.49" r="22.03" style="fill:none;stroke:#1A476F;stroke-width:8.64"/>
	<circle cx="890.38" cy="1005.25" r="26.35" style="fill:#1A476F"/>
	<circle cx="890.38" cy="1005.25" r="22.03" style="fill:none;stroke:#1A476F;stroke-width:8.64"/>
	<circle cx="928.00" cy="1039.04" r="26.35" style="fill:#1A476F"/>
	<circle cx="928.00" cy="1039.04" r="22.03" style="fill:none;stroke:#1A476F;stroke-width:8.64"/>
	<circle cx="965.50" cy="1071.21" r="26.35" style="fill:#1A476F"/>
	<circle cx="965.50" cy="1071.21" r="22.03" style="fill:none;stroke:#1A476F;stroke-width:8.64"/>
	<circle cx="1002.87" cy="1101.78" r="26.35" style="fill:#1A476F"/>
	<circle cx="1002.87" cy="1101.78" r="22.03" style="fill:none;stroke:#1A476F;stroke-width:8.64"/>
	<circle cx="1040.24" cy="1130.74" r="26.35" style="fill:#1A476F"/>
	<circle cx="1040.24" cy="1130.74" r="22.03" style="fill:none;stroke:#1A476F;stroke-width:8.64"/>
	<circle cx="1077.37" cy="1158.21" r="26.35" style="fill:#1A476F"/>
	<circle cx="1077.37" cy="1158.21" r="22.03" style="fill:none;stroke:#1A476F;stroke-width:8.64"/>
	<circle cx="1114.49" cy="1184.20" r="26.35" style="fill:#1A476F"/>
	<circle cx="1114.49" cy="1184.20" r="22.03" style="fill:none;stroke:#1A476F;stroke-width:8.64"/>
	<circle cx="1151.49" cy="1209.08" r="26.35" style="fill:#1A476F"/>
	<circle cx="1151.49" cy="1209.08" r="22.03" style="fill:none;stroke:#1A476F;stroke-width:8.64"/>
	<circle cx="1188.37" cy="1233.08" r="26.35" style="fill:#1A476F"/>
	<circle cx="1188.37" cy="1233.08" r="22.03" style="fill:none;stroke:#1A476F;stroke-width:8.64"/>
	<circle cx="1225.25" cy="1256.60" r="26.35" style="fill:#1A476F"/>
	<circle cx="1225.25" cy="1256.60" r="22.03" style="fill:none;stroke:#1A476F;stroke-width:8.64"/>
	<circle cx="1262.00" cy="1279.74" r="26.35" style="fill:#1A476F"/>
	<circle cx="1262.00" cy="1279.74" r="22.03" style="fill:none;stroke:#1A476F;stroke-width:8.64"/>
	<circle cx="1298.63" cy="1302.39" r="26.35" style="fill:#1A476F"/>
	<circle cx="1298.63" cy="1302.39" r="22.03" style="fill:none;stroke:#1A476F;stroke-width:8.64"/>
	<circle cx="1335.14" cy="1324.41" r="26.35" style="fill:#1A476F"/>
	<circle cx="1335.14" cy="1324.41" r="22.03" style="fill:none;stroke:#1A476F;stroke-width:8.64"/>
	<circle cx="1371.52" cy="1345.70" r="26.35" style="fill:#1A476F"/>
	<circle cx="1371.52" cy="1345.70" r="22.03" style="fill:none;stroke:#1A476F;stroke-width:8.64"/>
	<circle cx="1407.90" cy="1366.00" r="26.35" style="fill:#1A476F"/>
	<circle cx="1407.90" cy="1366.00" r="22.03" style="fill:none;stroke:#1A476F;stroke-width:8.64"/>
	<circle cx="1444.16" cy="1384.93" r="26.35" style="fill:#1A476F"/>
	<circle cx="1444.16" cy="1384.93" r="22.03" style="fill:none;stroke:#1A476F;stroke-width:8.64"/>
	<circle cx="1480.42" cy="1402.63" r="26.35" style="fill:#1A476F"/>
	<circle cx="1480.42" cy="1402.63" r="22.03" style="fill:none;stroke:#1A476F;stroke-width:8.64"/>
	<circle cx="1516.43" cy="1419.09" r="26.35" style="fill:#1A476F"/>
	<circle cx="1516.43" cy="1419.09" r="22.03" style="fill:none;stroke:#1A476F;stroke-width:8.64"/>
	<circle cx="1552.44" cy="1434.93" r="26.35" style="fill:#1A476F"/>
	<circle cx="1552.44" cy="1434.93" r="22.03" style="fill:none;stroke:#1A476F;stroke-width:8.64"/>
	<circle cx="1588.33" cy="1450.40" r="26.35" style="fill:#1A476F"/>
	<circle cx="1588.33" cy="1450.40" r="22.03" style="fill:none;stroke:#1A476F;stroke-width:8.64"/>
	<circle cx="1624.10" cy="1465.74" r="26.35" style="fill:#1A476F"/>
	<circle cx="1624.10" cy="1465.74" r="22.03" style="fill:none;stroke:#1A476F;stroke-width:8.64"/>
	<circle cx="1659.86" cy="1481.33" r="26.35" style="fill:#1A476F"/>
	<circle cx="1659.86" cy="1481.33" r="22.03" style="fill:none;stroke:#1A476F;stroke-width:8.64"/>
	<circle cx="1695.50" cy="1497.17" r="26.35" style="fill:#1A476F"/>
	<circle cx="1695.50" cy="1497.17" r="22.03" style="fill:none;stroke:#1A476F;stroke-width:8.64"/>
	<circle cx="1731.02" cy="1513.26" r="26.35" style="fill:#1A476F"/>
	<circle cx="1731.02" cy="1513.26" r="22.03" style="fill:none;stroke:#1A476F;stroke-width:8.64"/>
	<circle cx="1766.41" cy="1529.60" r="26.35" style="fill:#1A476F"/>
	<circle cx="1766.41" cy="1529.60" r="22.03" style="fill:none;stroke:#1A476F;stroke-width:8.64"/>
	<circle cx="1801.80" cy="1545.93" r="26.35" style="fill:#1A476F"/>
	<circle cx="1801.80" cy="1545.93" r="22.03" style="fill:none;stroke:#1A476F;stroke-width:8.64"/>
	<circle cx="1837.07" cy="1562.39" r="26.35" style="fill:#1A476F"/>
	<circle cx="1837.07" cy="1562.39" r="22.03" style="fill:none;stroke:#1A476F;stroke-width:8.64"/>
	<circle cx="1872.21" cy="1578.60" r="26.35" style="fill:#1A476F"/>
	<circle cx="1872.21" cy="1578.60" r="22.03" style="fill:none;stroke:#1A476F;stroke-width:8.64"/>
	<circle cx="1907.24" cy="1594.57" r="26.35" style="fill:#1A476F"/>
	<circle cx="1907.24" cy="1594.57" r="22.03" style="fill:none;stroke:#1A476F;stroke-width:8.64"/>
	<circle cx="1942.26" cy="1610.41" r="26.35" style="fill:#1A476F"/>
	<circle cx="1942.26" cy="1610.41" r="22.03" style="fill:none;stroke:#1A476F;stroke-width:8.64"/>
	<circle cx="1977.15" cy="1625.88" r="26.35" style="fill:#1A476F"/>
	<circle cx="1977.15" cy="1625.88" r="22.03" style="fill:none;stroke:#1A476F;stroke-width:8.64"/>
	<circle cx="2011.93" cy="1641.10" r="26.35" style="fill:#1A476F"/>
	<circle cx="2011.93" cy="1641.10" r="22.03" style="fill:none;stroke:#1A476F;stroke-width:8.64"/>
	<circle cx="2046.70" cy="1655.83" r="26.35" style="fill:#1A476F"/>
	<circle cx="2046.70" cy="1655.83" r="22.03" style="fill:none;stroke:#1A476F;stroke-width:8.64"/>
	<circle cx="2081.35" cy="1669.81" r="26.35" style="fill:#1A476F"/>
	<circle cx="2081.35" cy="1669.81" r="22.03" style="fill:none;stroke:#1A476F;stroke-width:8.64"/>
	<circle cx="2115.88" cy="1682.81" r="26.35" style="fill:#1A476F"/>
	<circle cx="2115.88" cy="1682.81" r="22.03" style="fill:none;stroke:#1A476F;stroke-width:8.64"/>
	<circle cx="2150.28" cy="1694.81" r="26.35" style="fill:#1A476F"/>
	<circle cx="2150.28" cy="1694.81" r="22.03" style="fill:none;stroke:#1A476F;stroke-width:8.64"/>
	<circle cx="2184.68" cy="1706.07" r="26.35" style="fill:#1A476F"/>
	<circle cx="2184.68" cy="1706.07" r="22.03" style="fill:none;stroke:#1A476F;stroke-width:8.64"/>
	<circle cx="2218.96" cy="1716.84" r="26.35" style="fill:#1A476F"/>
	<circle cx="2218.96" cy="1716.84" r="22.03" style="fill:none;stroke:#1A476F;stroke-width:8.64"/>
	<circle cx="2253.12" cy="1727.73" r="26.35" style="fill:#1A476F"/>
	<circle cx="2253.12" cy="1727.73" r="22.03" style="fill:none;stroke:#1A476F;stroke-width:8.64"/>
	<circle cx="2287.27" cy="1738.99" r="26.35" style="fill:#1A476F"/>
	<circle cx="2287.27" cy="1738.99" r="22.03" style="fill:none;stroke:#1A476F;stroke-width:8.64"/>
	<circle cx="2321.30" cy="1750.75" r="26.35" style="fill:#1A476F"/>
	<circle cx="2321.30" cy="1750.75" r="22.03" style="fill:none;stroke:#1A476F;stroke-width:8.64"/>
	<circle cx="2355.21" cy="1763.00" r="26.35" style="fill:#1A476F"/>
	<circle cx="2355.21" cy="1763.00" r="22.03" style="fill:none;stroke:#1A476F;stroke-width:8.64"/>
	<circle cx="2388.99" cy="1775.74" r="26.35" style="fill:#1A476F"/>
	<circle cx="2388.99" cy="1775.74" r="22.03" style="fill:none;stroke:#1A476F;stroke-width:8.64"/>
	<circle cx="2422.78" cy="1788.61" r="26.35" style="fill:#1A476F"/>
	<circle cx="2422.78" cy="1788.61" r="22.03" style="fill:none;stroke:#1A476F;stroke-width:8.64"/>
	<circle cx="2456.44" cy="1801.36" r="26.35" style="fill:#1A476F"/>
	<circle cx="2456.44" cy="1801.36" r="22.03" style="fill:none;stroke:#1A476F;stroke-width:8.64"/>
	<circle cx="2489.97" cy="1813.74" r="26.35" style="fill:#1A476F"/>
	<circle cx="2489.97" cy="1813.74" r="22.03" style="fill:none;stroke:#1A476F;stroke-width:8.64"/>
	<circle cx="2523.51" cy="1825.37" r="26.35" style="fill:#1A476F"/>
	<circle cx="2523.51" cy="1825.37" r="22.03" style="fill:none;stroke:#1A476F;stroke-width:8.64"/>
	<circle cx="2556.92" cy="1836.38" r="26.35" style="fill:#1A476F"/>
	<circle cx="2556.92" cy="1836.38" r="22.03" style="fill:none;stroke:#1A476F;stroke-width:8.64"/>
	<circle cx="2590.21" cy="1846.78" r="26.35" style="fill:#1A476F"/>
	<circle cx="2590.21" cy="1846.78" r="22.03" style="fill:none;stroke:#1A476F;stroke-width:8.64"/>
	<circle cx="2623.50" cy="1856.93" r="26.35" style="fill:#1A476F"/>
	<circle cx="2623.50" cy="1856.93" r="22.03" style="fill:none;stroke:#1A476F;stroke-width:8.64"/>
	<circle cx="2656.67" cy="1867.07" r="26.35" style="fill:#1A476F"/>
	<circle cx="2656.67" cy="1867.07" r="22.03" style="fill:none;stroke:#1A476F;stroke-width:8.64"/>
	<circle cx="2689.71" cy="1877.22" r="26.35" style="fill:#1A476F"/>
	<circle cx="2689.71" cy="1877.22" r="22.03" style="fill:none;stroke:#1A476F;stroke-width:8.64"/>
	<circle cx="2722.75" cy="1887.37" r="26.35" style="fill:#1A476F"/>
	<circle cx="2722.75" cy="1887.37" r="22.03" style="fill:none;stroke:#1A476F;stroke-width:8.64"/>
	<circle cx="2755.67" cy="1897.15" r="26.35" style="fill:#1A476F"/>
	<circle cx="2755.67" cy="1897.15" r="22.03" style="fill:none;stroke:#1A476F;stroke-width:8.64"/>
	<circle cx="2788.46" cy="1905.93" r="26.35" style="fill:#1A476F"/>
	<circle cx="2788.46" cy="1905.93" r="22.03" style="fill:none;stroke:#1A476F;stroke-width:8.64"/>
	<circle cx="2821.25" cy="1913.48" r="26.35" style="fill:#1A476F"/>
	<circle cx="2821.25" cy="1913.48" r="22.03" style="fill:none;stroke:#1A476F;stroke-width:8.64"/>
	<circle cx="2853.80" cy="1919.42" r="26.35" style="fill:#1A476F"/>
	<circle cx="2853.80" cy="1919.42" r="22.03" style="fill:none;stroke:#1A476F;stroke-width:8.64"/>
	<circle cx="2886.47" cy="1924.25" r="26.35" style="fill:#1A476F"/>
	<circle cx="2886.47" cy="1924.25" r="22.03" style="fill:none;stroke:#1A476F;stroke-width:8.64"/>
	<circle cx="2918.89" cy="1928.46" r="26.35" style="fill:#1A476F"/>
	<circle cx="2918.89" cy="1928.46" r="22.03" style="fill:none;stroke:#1A476F;stroke-width:8.64"/>
	<circle cx="2951.31" cy="1933.16" r="26.35" style="fill:#1A476F"/>
	<circle cx="2951.31" cy="1933.16" r="22.03" style="fill:none;stroke:#1A476F;stroke-width:8.64"/>
	<circle cx="2983.61" cy="1939.10" r="26.35" style="fill:#1A476F"/>
	<circle cx="2983.61" cy="1939.10" r="22.03" style="fill:none;stroke:#1A476F;stroke-width:8.64"/>
	<circle cx="3015.91" cy="1946.77" r="26.35" style="fill:#1A476F"/>
	<circle cx="3015.91" cy="1946.77" r="22.03" style="fill:none;stroke:#1A476F;stroke-width:8.64"/>
	<circle cx="3048.09" cy="1956.55" r="26.35" style="fill:#1A476F"/>
	<circle cx="3048.09" cy="1956.55" r="22.03" style="fill:none;stroke:#1A476F;stroke-width:8.64"/>
	<circle cx="3080.14" cy="1968.43" r="26.35" style="fill:#1A476F"/>
	<circle cx="3080.14" cy="1968.43" r="22.03" style="fill:none;stroke:#1A476F;stroke-width:8.64"/>
	<circle cx="3112.07" cy="1981.79" r="26.35" style="fill:#1A476F"/>
	<circle cx="3112.07" cy="1981.79" r="22.03" style="fill:none;stroke:#1A476F;stroke-width:8.64"/>
	<circle cx="3143.99" cy="1995.78" r="26.35" style="fill:#1A476F"/>
	<circle cx="3143.99" cy="1995.78" r="22.03" style="fill:none;stroke:#1A476F;stroke-width:8.64"/>
	<circle cx="3175.80" cy="2009.27" r="26.35" style="fill:#1A476F"/>
	<circle cx="3175.80" cy="2009.27" r="22.03" style="fill:none;stroke:#1A476F;stroke-width:8.64"/>
	<circle cx="3207.60" cy="2021.02" r="26.35" style="fill:#1A476F"/>
	<circle cx="3207.60" cy="2021.02" r="22.03" style="fill:none;stroke:#1A476F;stroke-width:8.64"/>
	<circle cx="3239.28" cy="2030.31" r="26.35" style="fill:#1A476F"/>
	<circle cx="3239.28" cy="2030.31" r="22.03" style="fill:none;stroke:#1A476F;stroke-width:8.64"/>
	<circle cx="3270.84" cy="2036.74" r="26.35" style="fill:#1A476F"/>
	<circle cx="3270.84" cy="2036.74" r="22.03" style="fill:none;stroke:#1A476F;stroke-width:8.64"/>
	<circle cx="3302.39" cy="2040.58" r="26.35" style="fill:#1A476F"/>
	<circle cx="3302.39" cy="2040.58" r="22.03" style="fill:none;stroke:#1A476F;stroke-width:8.64"/>
	<circle cx="3333.83" cy="2042.31" r="26.35" style="fill:#1A476F"/>
	<circle cx="3333.83" cy="2042.31" r="22.03" style="fill:none;stroke:#1A476F;stroke-width:8.64"/>
	<circle cx="3365.13" cy="2042.68" r="26.35" style="fill:#1A476F"/>
	<circle cx="3365.13" cy="2042.68" r="22.03" style="fill:none;stroke:#1A476F;stroke-width:8.64"/>
	<circle cx="3396.44" cy="2042.56" r="26.35" style="fill:#1A476F"/>
	<circle cx="3396.44" cy="2042.56" r="22.03" style="fill:none;stroke:#1A476F;stroke-width:8.64"/>
	<circle cx="3427.63" cy="2042.81" r="26.35" style="fill:#1A476F"/>
	<circle cx="3427.63" cy="2042.81" r="22.03" style="fill:none;stroke:#1A476F;stroke-width:8.64"/>
	<circle cx="3458.69" cy="2044.66" r="26.35" style="fill:#1A476F"/>
	<circle cx="3458.69" cy="2044.66" r="22.03" style="fill:none;stroke:#1A476F;stroke-width:8.64"/>
	<circle cx="3489.75" cy="2048.99" r="26.35" style="fill:#1A476F"/>
	<circle cx="3489.75" cy="2048.99" r="22.03" style="fill:none;stroke:#1A476F;stroke-width:8.64"/>
	<circle cx="3520.69" cy="2056.42" r="26.35" style="fill:#1A476F"/>
	<circle cx="3520.69" cy="2056.42" r="22.03" style="fill:none;stroke:#1A476F;stroke-width:8.64"/>
	<circle cx="3551.50" cy="2067.06" r="26.35" style="fill:#1A476F"/>
	<circle cx="3551.50" cy="2067.06" r="22.03" style="fill:none;stroke:#1A476F;stroke-width:8.64"/>
	<circle cx="3582.32" cy="2080.67" r="26.35" style="fill:#1A476F"/>
	<circle cx="3582.32" cy="2080.67" r="22.03" style="fill:none;stroke:#1A476F;stroke-width:8.64"/>
	<circle cx="3613.01" cy="2096.64" r="26.35" style="fill:#1A476F"/>
	<circle cx="3613.01" cy="2096.64" r="22.03" style="fill:none;stroke:#1A476F;stroke-width:8.64"/>
	<circle cx="3643.70" cy="2114.09" r="26.35" style="fill:#1A476F"/>
	<circle cx="3643.70" cy="2114.09" r="22.03" style="fill:none;stroke:#1A476F;stroke-width:8.64"/>
	<circle cx="3674.26" cy="2131.78" r="26.35" style="fill:#1A476F"/>
	<circle cx="3674.26" cy="2131.78" r="22.03" style="fill:none;stroke:#1A476F;stroke-width:8.64"/>
	<circle cx="3704.70" cy="2147.87" r="26.35" style="fill:#1A476F"/>
	<circle cx="3704.70" cy="2147.87" r="22.03" style="fill:none;stroke:#1A476F;stroke-width:8.64"/>
	<circle cx="3735.15" cy="2159.88" r="26.35" style="fill:#1A476F"/>
	<circle cx="3735.15" cy="2159.88" r="22.03" style="fill:none;stroke:#1A476F;stroke-width:8.64"/>
	<circle cx="3765.47" cy="2164.83" r="26.35" style="fill:#1A476F"/>
	<circle cx="3765.47" cy="2164.83" r="22.03" style="fill:none;stroke:#1A476F;stroke-width:8.64"/>
	<circle cx="3795.66" cy="2160.25" r="26.35" style="fill:#1A476F"/>
	<circle cx="3795.66" cy="2160.25" r="22.03" style="fill:none;stroke:#1A476F;stroke-width:8.64"/>
	<circle cx="354.05" cy="316.81" r="26.35" style="fill:#90353B"/>
	<circle cx="354.05" cy="316.81" r="22.03" style="fill:none;stroke:#90353B;stroke-width:8.64"/>
	<circle cx="393.03" cy="399.72" r="26.35" style="fill:#90353B"/>
	<circle cx="393.03" cy="399.72" r="22.03" style="fill:none;stroke:#90353B;stroke-width:8.64"/>
	<circle cx="431.89" cy="474.35" r="26.35" style="fill:#90353B"/>
	<circle cx="431.89" cy="474.35" r="22.03" style="fill:none;stroke:#90353B;stroke-width:8.64"/>
	<circle cx="470.62" cy="542.29" r="26.35" style="fill:#90353B"/>
	<circle cx="470.62" cy="542.29" r="22.03" style="fill:none;stroke:#90353B;stroke-width:8.64"/>
	<circle cx="509.23" cy="604.54" r="26.35" style="fill:#90353B"/>
	<circle cx="509.23" cy="604.54" r="22.03" style="fill:none;stroke:#90353B;stroke-width:8.64"/>
	<circle cx="547.84" cy="662.08" r="26.35" style="fill:#90353B"/>
	<circle cx="547.84" cy="662.08" r="22.03" style="fill:none;stroke:#90353B;stroke-width:8.64"/>
	<circle cx="586.33" cy="715.42" r="26.35" style="fill:#90353B"/>
	<circle cx="586.33" cy="715.42" r="22.03" style="fill:none;stroke:#90353B;stroke-width:8.64"/>
	<circle cx="624.69" cy="765.17" r="26.35" style="fill:#90353B"/>
	<circle cx="624.69" cy="765.17" r="22.03" style="fill:none;stroke:#90353B;stroke-width:8.64"/>
	<circle cx="662.93" cy="811.95" r="26.35" style="fill:#90353B"/>
	<circle cx="662.93" cy="811.95" r="22.03" style="fill:none;stroke:#90353B;stroke-width:8.64"/>
	<circle cx="701.04" cy="855.76" r="26.35" style="fill:#90353B"/>
	<circle cx="701.04" cy="855.76" r="22.03" style="fill:none;stroke:#90353B;stroke-width:8.64"/>
	<circle cx="739.16" cy="897.22" r="26.35" style="fill:#90353B"/>
	<circle cx="739.16" cy="897.22" r="22.03" style="fill:none;stroke:#90353B;stroke-width:8.64"/>
	<circle cx="777.15" cy="936.45" r="26.35" style="fill:#90353B"/>
	<circle cx="777.15" cy="936.45" r="22.03" style="fill:none;stroke:#90353B;stroke-width:8.64"/>
	<circle cx="815.02" cy="973.70" r="26.35" style="fill:#90353B"/>
	<circle cx="815.02" cy="973.70" r="22.03" style="fill:none;stroke:#90353B;stroke-width:8.64"/>
	<circle cx="852.76" cy="1009.21" r="26.35" style="fill:#90353B"/>
	<circle cx="852.76" cy="1009.21" r="22.03" style="fill:none;stroke:#90353B;stroke-width:8.64"/>
	<circle cx="890.38" cy="1043.00" r="26.35" style="fill:#90353B"/>
	<circle cx="890.38" cy="1043.00" r="22.03" style="fill:none;stroke:#90353B;stroke-width:8.64"/>
	<circle cx="928.00" cy="1075.30" r="26.35" style="fill:#90353B"/>
	<circle cx="928.00" cy="1075.30" r="22.03" style="fill:none;stroke:#90353B;stroke-width:8.64"/>
	<circle cx="965.50" cy="1106.24" r="26.35" style="fill:#90353B"/>
	<circle cx="965.50" cy="1106.24" r="22.03" style="fill:none;stroke:#90353B;stroke-width:8.64"/>
	<circle cx="1002.87" cy="1135.94" r="26.35" style="fill:#90353B"/>
	<circle cx="1002.87" cy="1135.94" r="22.03" style="fill:none;stroke:#90353B;stroke-width:8.64"/>
	<circle cx="1040.24" cy="1164.40" r="26.35" style="fill:#90353B"/>
	<circle cx="1040.24" cy="1164.40" r="22.03" style="fill:none;stroke:#90353B;stroke-width:8.64"/>
	<circle cx="1077.37" cy="1191.75" r="26.35" style="fill:#90353B"/>
	<circle cx="1077.37" cy="1191.75" r="22.03" style="fill:none;stroke:#90353B;stroke-width:8.64"/>
	<circle cx="1114.49" cy="1218.23" r="26.35" style="fill:#90353B"/>
	<circle cx="1114.49" cy="1218.23" r="22.03" style="fill:none;stroke:#90353B;stroke-width:8.64"/>
	<circle cx="1151.49" cy="1243.73" r="26.35" style="fill:#90353B"/>
	<circle cx="1151.49" cy="1243.73" r="22.03" style="fill:none;stroke:#90353B;stroke-width:8.64"/>
	<circle cx="1188.37" cy="1268.35" r="26.35" style="fill:#90353B"/>
	<circle cx="1188.37" cy="1268.35" r="22.03" style="fill:none;stroke:#90353B;stroke-width:8.64"/>
	<circle cx="1225.25" cy="1292.11" r="26.35" style="fill:#90353B"/>
	<circle cx="1225.25" cy="1292.11" r="22.03" style="fill:none;stroke:#90353B;stroke-width:8.64"/>
	<circle cx="1262.00" cy="1315.13" r="26.35" style="fill:#90353B"/>
	<circle cx="1262.00" cy="1315.13" r="22.03" style="fill:none;stroke:#90353B;stroke-width:8.64"/>
	<circle cx="1298.63" cy="1337.41" r="26.35" style="fill:#90353B"/>
	<circle cx="1298.63" cy="1337.41" r="22.03" style="fill:none;stroke:#90353B;stroke-width:8.64"/>
	<circle cx="1335.14" cy="1358.94" r="26.35" style="fill:#90353B"/>
	<circle cx="1335.14" cy="1358.94" r="22.03" style="fill:none;stroke:#90353B;stroke-width:8.64"/>
	<circle cx="1371.52" cy="1379.98" r="26.35" style="fill:#90353B"/>
	<circle cx="1371.52" cy="1379.98" r="22.03" style="fill:none;stroke:#90353B;stroke-width:8.64"/>
	<circle cx="1407.90" cy="1400.40" r="26.35" style="fill:#90353B"/>
	<circle cx="1407.90" cy="1400.40" r="22.03" style="fill:none;stroke:#90353B;stroke-width:8.64"/>
	<circle cx="1444.16" cy="1420.08" r="26.35" style="fill:#90353B"/>
	<circle cx="1444.16" cy="1420.08" r="22.03" style="fill:none;stroke:#90353B;stroke-width:8.64"/>
	<circle cx="1480.42" cy="1439.38" r="26.35" style="fill:#90353B"/>
	<circle cx="1480.42" cy="1439.38" r="22.03" style="fill:none;stroke:#90353B;stroke-width:8.64"/>
	<circle cx="1516.43" cy="1458.07" r="26.35" style="fill:#90353B"/>
	<circle cx="1516.43" cy="1458.07" r="22.03" style="fill:none;stroke:#90353B;stroke-width:8.64"/>
	<circle cx="1552.44" cy="1476.38" r="26.35" style="fill:#90353B"/>
	<circle cx="1552.44" cy="1476.38" r="22.03" style="fill:none;stroke:#90353B;stroke-width:8.64"/>
	<circle cx="1588.33" cy="1494.20" r="26.35" style="fill:#90353B"/>
	<circle cx="1588.33" cy="1494.20" r="22.03" style="fill:none;stroke:#90353B;stroke-width:8.64"/>
	<circle cx="1624.10" cy="1511.53" r="26.35" style="fill:#90353B"/>
	<circle cx="1624.10" cy="1511.53" r="22.03" style="fill:none;stroke:#90353B;stroke-width:8.64"/>
	<circle cx="1659.86" cy="1528.36" r="26.35" style="fill:#90353B"/>
	<circle cx="1659.86" cy="1528.36" r="22.03" style="fill:none;stroke:#90353B;stroke-width:8.64"/>
	<circle cx="1695.50" cy="1544.94" r="26.35" style="fill:#90353B"/>
	<circle cx="1695.50" cy="1544.94" r="22.03" style="fill:none;stroke:#90353B;stroke-width:8.64"/>
	<circle cx="1731.02" cy="1561.03" r="26.35" style="fill:#90353B"/>
	<circle cx="1731.02" cy="1561.03" r="22.03" style="fill:none;stroke:#90353B;stroke-width:8.64"/>
	<circle cx="1766.41" cy="1576.75" r="26.35" style="fill:#90353B"/>
	<circle cx="1766.41" cy="1576.75" r="22.03" style="fill:none;stroke:#90353B;stroke-width:8.64"/>
	<circle cx="1801.80" cy="1592.22" r="26.35" style="fill:#90353B"/>
	<circle cx="1801.80" cy="1592.22" r="22.03" style="fill:none;stroke:#90353B;stroke-width:8.64"/>
	<circle cx="1837.07" cy="1607.19" r="26.35" style="fill:#90353B"/>
	<circle cx="1837.07" cy="1607.19" r="22.03" style="fill:none;stroke:#90353B;stroke-width:8.64"/>
	<circle cx="1872.21" cy="1622.04" r="26.35" style="fill:#90353B"/>
	<circle cx="1872.21" cy="1622.04" r="22.03" style="fill:none;stroke:#90353B;stroke-width:8.64"/>
	<circle cx="1907.24" cy="1636.40" r="26.35" style="fill:#90353B"/>
	<circle cx="1907.24" cy="1636.40" r="22.03" style="fill:none;stroke:#90353B;stroke-width:8.64"/>
	<circle cx="1942.26" cy="1650.51" r="26.35" style="fill:#90353B"/>
	<circle cx="1942.26" cy="1650.51" r="22.03" style="fill:none;stroke:#90353B;stroke-width:8.64"/>
	<circle cx="1977.15" cy="1664.37" r="26.35" style="fill:#90353B"/>
	<circle cx="1977.15" cy="1664.37" r="22.03" style="fill:none;stroke:#90353B;stroke-width:8.64"/>
	<circle cx="2011.93" cy="1677.98" r="26.35" style="fill:#90353B"/>
	<circle cx="2011.93" cy="1677.98" r="22.03" style="fill:none;stroke:#90353B;stroke-width:8.64"/>
	<circle cx="2046.70" cy="1691.22" r="26.35" style="fill:#90353B"/>
	<circle cx="2046.70" cy="1691.22" r="22.03" style="fill:none;stroke:#90353B;stroke-width:8.64"/>
	<circle cx="2081.35" cy="1704.21" r="26.35" style="fill:#90353B"/>
	<circle cx="2081.35" cy="1704.21" r="22.03" style="fill:none;stroke:#90353B;stroke-width:8.64"/>
	<circle cx="2115.88" cy="1717.08" r="26.35" style="fill:#90353B"/>
	<circle cx="2115.88" cy="1717.08" r="22.03" style="fill:none;stroke:#90353B;stroke-width:8.64"/>
	<circle cx="2150.28" cy="1729.58" r="26.35" style="fill:#90353B"/>
	<circle cx="2150.28" cy="1729.58" r="22.03" style="fill:none;stroke:#90353B;stroke-width:8.64"/>
	<circle cx="2184.68" cy="1741.84" r="26.35" style="fill:#90353B"/>
	<circle cx="2184.68" cy="1741.84" r="22.03" style="fill:none;stroke:#90353B;stroke-width:8.64"/>
	<circle cx="2218.96" cy="1753.96" r="26.35" style="fill:#90353B"/>
	<circle cx="2218.96" cy="1753.96" r="22.03" style="fill:none;stroke:#90353B;stroke-width:8.64"/>
	<circle cx="2253.12" cy="1765.84" r="26.35" style="fill:#90353B"/>
	<circle cx="2253.12" cy="1765.84" r="22.03" style="fill:none;stroke:#90353B;stroke-width:8.64"/>
	<circle cx="2287.27" cy="1777.48" r="26.35" style="fill:#90353B"/>
	<circle cx="2287.27" cy="1777.48" r="22.03" style="fill:none;stroke:#90353B;stroke-width:8.64"/>
	<circle cx="2321.30" cy="1788.99" r="26.35" style="fill:#90353B"/>
	<circle cx="2321.30" cy="1788.99" r="22.03" style="fill:none;stroke:#90353B;stroke-width:8.64"/>
	<circle cx="2355.21" cy="1800.25" r="26.35" style="fill:#90353B"/>
	<circle cx="2355.21" cy="1800.25" r="22.03" style="fill:none;stroke:#90353B;stroke-width:8.64"/>
	<circle cx="2388.99" cy="1811.26" r="26.35" style="fill:#90353B"/>
	<circle cx="2388.99" cy="1811.26" r="22.03" style="fill:none;stroke:#90353B;stroke-width:8.64"/>
	<circle cx="2422.78" cy="1822.15" r="26.35" style="fill:#90353B"/>
	<circle cx="2422.78" cy="1822.15" r="22.03" style="fill:none;stroke:#90353B;stroke-width:8.64"/>
	<circle cx="2456.44" cy="1832.92" r="26.35" style="fill:#90353B"/>
	<circle cx="2456.44" cy="1832.92" r="22.03" style="fill:none;stroke:#90353B;stroke-width:8.64"/>
	<circle cx="2489.97" cy="1843.44" r="26.35" style="fill:#90353B"/>
	<circle cx="2489.97" cy="1843.44" r="22.03" style="fill:none;stroke:#90353B;stroke-width:8.64"/>
	<circle cx="2523.51" cy="1853.83" r="26.35" style="fill:#90353B"/>
	<circle cx="2523.51" cy="1853.83" r="22.03" style="fill:none;stroke:#90353B;stroke-width:8.64"/>
	<circle cx="2556.92" cy="1863.98" r="26.35" style="fill:#90353B"/>
	<circle cx="2556.92" cy="1863.98" r="22.03" style="fill:none;stroke:#90353B;stroke-width:8.64"/>
	<circle cx="2590.21" cy="1874.13" r="26.35" style="fill:#90353B"/>
	<circle cx="2590.21" cy="1874.13" r="22.03" style="fill:none;stroke:#90353B;stroke-width:8.64"/>
	<circle cx="2623.50" cy="1884.03" r="26.35" style="fill:#90353B"/>
	<circle cx="2623.50" cy="1884.03" r="22.03" style="fill:none;stroke:#90353B;stroke-width:8.64"/>
	<circle cx="2656.67" cy="1893.68" r="26.35" style="fill:#90353B"/>
	<circle cx="2656.67" cy="1893.68" r="22.03" style="fill:none;stroke:#90353B;stroke-width:8.64"/>
	<circle cx="2689.71" cy="1903.33" r="26.35" style="fill:#90353B"/>
	<circle cx="2689.71" cy="1903.33" r="22.03" style="fill:none;stroke:#90353B;stroke-width:8.64"/>
	<circle cx="2722.75" cy="1912.74" r="26.35" style="fill:#90353B"/>
	<circle cx="2722.75" cy="1912.74" r="22.03" style="fill:none;stroke:#90353B;stroke-width:8.64"/>
	<circle cx="2755.67" cy="1922.15" r="26.35" style="fill:#90353B"/>
	<circle cx="2755.67" cy="1922.15" r="22.03" style="fill:none;stroke:#90353B;stroke-width:8.64"/>
	<circle cx="2788.46" cy="1931.30" r="26.35" style="fill:#90353B"/>
	<circle cx="2788.46" cy="1931.30" r="22.03" style="fill:none;stroke:#90353B;stroke-width:8.64"/>
	<circle cx="2821.25" cy="1940.34" r="26.35" style="fill:#90353B"/>
	<circle cx="2821.25" cy="1940.34" r="22.03" style="fill:none;stroke:#90353B;stroke-width:8.64"/>
	<circle cx="2853.80" cy="1949.25" r="26.35" style="fill:#90353B"/>
	<circle cx="2853.80" cy="1949.25" r="22.03" style="fill:none;stroke:#90353B;stroke-width:8.64"/>
	<circle cx="2886.47" cy="1958.03" r="26.35" style="fill:#90353B"/>
	<circle cx="2886.47" cy="1958.03" r="22.03" style="fill:none;stroke:#90353B;stroke-width:8.64"/>
	<circle cx="2918.89" cy="1966.70" r="26.35" style="fill:#90353B"/>
	<circle cx="2918.89" cy="1966.70" r="22.03" style="fill:none;stroke:#90353B;stroke-width:8.64"/>
	<circle cx="2951.31" cy="1975.36" r="26.35" style="fill:#90353B"/>
	<circle cx="2951.31" cy="1975.36" r="22.03" style="fill:none;stroke:#90353B;stroke-width:8.64"/>
	<circle cx="2983.61" cy="1983.77" r="26.35" style="fill:#90353B"/>
	<circle cx="2983.61" cy="1983.77" r="22.03" style="fill:none;stroke:#90353B;stroke-width:8.64"/>
	<circle cx="3015.91" cy="1992.07" r="26.35" style="fill:#90353B"/>
	<circle cx="3015.91" cy="1992.07" r="22.03" style="fill:none;stroke:#90353B;stroke-width:8.64"/>
	<circle cx="3048.09" cy="2000.36" r="26.35" style="fill:#90353B"/>
	<circle cx="3048.09" cy="2000.36" r="22.03" style="fill:none;stroke:#90353B;stroke-width:8.64"/>
	<circle cx="3080.14" cy="2008.40" r="26.35" style="fill:#90353B"/>
	<circle cx="3080.14" cy="2008.40" r="22.03" style="fill:none;stroke:#90353B;stroke-width:8.64"/>
	<circle cx="3112.07" cy="2016.45" r="26.35" style="fill:#90353B"/>
	<circle cx="3112.07" cy="2016.45" r="22.03" style="fill:none;stroke:#90353B;stroke-width:8.64"/>
	<circle cx="3143.99" cy="2024.37" r="26.35" style="fill:#90353B"/>
	<circle cx="3143.99" cy="2024.37" r="22.03" style="fill:none;stroke:#90353B;stroke-width:8.64"/>
	<circle cx="3175.80" cy="2032.16" r="26.35" style="fill:#90353B"/>
	<circle cx="3175.80" cy="2032.16" r="22.03" style="fill:none;stroke:#90353B;stroke-width:8.64"/>
	<circle cx="3207.60" cy="2039.83" r="26.35" style="fill:#90353B"/>
	<circle cx="3207.60" cy="2039.83" r="22.03" style="fill:none;stroke:#90353B;stroke-width:8.64"/>
	<circle cx="3239.28" cy="2047.51" r="26.35" style="fill:#90353B"/>
	<circle cx="3239.28" cy="2047.51" r="22.03" style="fill:none;stroke:#90353B;stroke-width:8.64"/>
	<circle cx="3270.84" cy="2055.06" r="26.35" style="fill:#90353B"/>
	<circle cx="3270.84" cy="2055.06" r="22.03" style="fill:none;stroke:#90353B;stroke-width:8.64"/>
	<circle cx="3302.39" cy="2062.48" r="26.35" style="fill:#90353B"/>
	<circle cx="3302.39" cy="2062.48" r="22.03" style="fill:none;stroke:#90353B;stroke-width:8.64"/>
	<circle cx="3333.83" cy="2069.78" r="26.35" style="fill:#90353B"/>
	<circle cx="3333.83" cy="2069.78" r="22.03" style="fill:none;stroke:#90353B;stroke-width:8.64"/>
	<circle cx="3365.13" cy="2077.08" r="26.35" style="fill:#90353B"/>
	<circle cx="3365.13" cy="2077.08" r="22.03" style="fill:none;stroke:#90353B;stroke-width:8.64"/>
	<circle cx="3396.44" cy="2084.26" r="26.35" style="fill:#90353B"/>
	<circle cx="3396.44" cy="2084.26" r="22.03" style="fill:none;stroke:#90353B;stroke-width:8.64"/>
	<circle cx="3427.63" cy="2091.32" r="26.35" style="fill:#90353B"/>
	<circle cx="3427.63" cy="2091.32" r="22.03" style="fill:none;stroke:#90353B;stroke-width:8.64"/>
	<circle cx="3458.69" cy="2098.37" r="26.35" style="fill:#90353B"/>
	<circle cx="3458.69" cy="2098.37" r="22.03" style="fill:none;stroke:#90353B;stroke-width:8.64"/>
	<circle cx="3489.75" cy="2105.30" r="26.35" style="fill:#90353B"/>
	<circle cx="3489.75" cy="2105.30" r="22.03" style="fill:none;stroke:#90353B;stroke-width:8.64"/>
	<circle cx="3520.69" cy="2112.11" r="26.35" style="fill:#90353B"/>
	<circle cx="3520.69" cy="2112.11" r="22.03" style="fill:none;stroke:#90353B;stroke-width:8.64"/>
	<circle cx="3551.50" cy="2118.91" r="26.35" style="fill:#90353B"/>
	<circle cx="3551.50" cy="2118.91" r="22.03" style="fill:none;stroke:#90353B;stroke-width:8.64"/>
	<circle cx="3582.32" cy="2125.60" r="26.35" style="fill:#90353B"/>
	<circle cx="3582.32" cy="2125.60" r="22.03" style="fill:none;stroke:#90353B;stroke-width:8.64"/>
	<circle cx="3613.01" cy="2132.16" r="26.35" style="fill:#90353B"/>
	<circle cx="3613.01" cy="2132.16" r="22.03" style="fill:none;stroke:#90353B;stroke-width:8.64"/>
	<circle cx="3643.70" cy="2138.71" r="26.35" style="fill:#90353B"/>
	<circle cx="3643.70" cy="2138.71" r="22.03" style="fill:none;stroke:#90353B;stroke-width:8.64"/>
	<circle cx="3674.26" cy="2145.15" r="26.35" style="fill:#90353B"/>
	<circle cx="3674.26" cy="2145.15" r="22.03" style="fill:none;stroke:#90353B;stroke-width:8.64"/>
	<circle cx="3704.70" cy="2151.58" r="26.35" style="fill:#90353B"/>
	<circle cx="3704.70" cy="2151.58" r="22.03" style="fill:none;stroke:#90353B;stroke-width:8.64"/>
	<circle cx="3735.15" cy="2157.90" r="26.35" style="fill:#90353B"/>
	<circle cx="3735.15" cy="2157.90" r="22.03" style="fill:none;stroke:#90353B;stroke-width:8.64"/>
	<circle cx="3765.47" cy="2164.21" r="26.35" style="fill:#90353B"/>
	<circle cx="3765.47" cy="2164.21" r="22.03" style="fill:none;stroke:#90353B;stroke-width:8.64"/>
	<circle cx="3795.66" cy="2170.40" r="26.35" style="fill:#90353B"/>
	<circle cx="3795.66" cy="2170.40" r="22.03" style="fill:none;stroke:#90353B;stroke-width:8.64"/>
	<line x1="290.81" y1="2233.63" x2="290.81" y2="100.86" style="stroke:#000000;stroke-width:5.76"/>
	<line x1="290.81" y1="2096.64" x2="250.84" y2="2096.64" style="stroke:#000000;stroke-width:5.76"/>
	<text x="200.73" y="2096.64" style="font-family:'Helvetica';font-size:99.99px;fill:#000000" transform="rotate(-90 200.73,2096.64)" text-anchor="middle">0</text>
	<line x1="290.81" y1="1710.15" x2="250.84" y2="1710.15" style="stroke:#000000;stroke-width:5.76"/>
	<text x="200.73" y="1710.15" style="font-family:'Helvetica';font-size:99.99px;fill:#000000" transform="rotate(-90 200.73,1710.15)" text-anchor="middle">1</text>
	<line x1="290.81" y1="1323.67" x2="250.84" y2="1323.67" style="stroke:#000000;stroke-width:5.76"/>
	<text x="200.73" y="1323.67" style="font-family:'Helvetica';font-size:99.99px;fill:#000000" transform="rotate(-90 200.73,1323.67)" text-anchor="middle">2</text>
	<line x1="290.81" y1="937.19" x2="250.84" y2="937.19" style="stroke:#000000;stroke-width:5.76"/>
	<text x="200.73" y="937.19" style="font-family:'Helvetica';font-size:99.99px;fill:#000000" transform="rotate(-90 200.73,937.19)" text-anchor="middle">3</text>
	<line x1="290.81" y1="550.70" x2="250.84" y2="550.70" style="stroke:#000000;stroke-width:5.76"/>
	<text x="200.73" y="550.70" style="font-family:'Helvetica';font-size:99.99px;fill:#000000" transform="rotate(-90 200.73,550.70)" text-anchor="middle">4</text>
	<line x1="290.81" y1="164.22" x2="250.84" y2="164.22" style="stroke:#000000;stroke-width:5.76"/>
	<text x="200.73" y="164.22" style="font-family:'Helvetica';font-size:99.99px;fill:#000000" transform="rotate(-90 200.73,164.22)" text-anchor="middle">5</text>
	<line x1="290.81" y1="2233.63" x2="3859.02" y2="2233.63" style="stroke:#000000;stroke-width:5.76"/>
	<line x1="354.17" y1="2233.63" x2="354.17" y2="2273.73" style="stroke:#000000;stroke-width:5.76"/>
	<text x="354.17" y="2363.59" style="font-family:'Helvetica';font-size:99.99px;fill:#000000" text-anchor="middle">0</text>
	<line x1="1042.47" y1="2233.63" x2="1042.47" y2="2273.73" style="stroke:#000000;stroke-width:5.76"/>
	<text x="1042.47" y="2363.59" style="font-family:'Helvetica';font-size:99.99px;fill:#000000" text-anchor="middle">.2</text>
	<line x1="1730.77" y1="2233.63" x2="1730.77" y2="2273.73" style="stroke:#000000;stroke-width:5.76"/>
	<text x="1730.77" y="2363.59" style="font-family:'Helvetica';font-size:99.99px;fill:#000000" text-anchor="middle">.4</text>
	<line x1="2419.07" y1="2233.63" x2="2419.07" y2="2273.73" style="stroke:#000000;stroke-width:5.76"/>
	<text x="2419.07" y="2363.59" style="font-family:'Helvetica';font-size:99.99px;fill:#000000" text-anchor="middle">.6</text>
	<line x1="3107.36" y1="2233.63" x2="3107.36" y2="2273.73" style="stroke:#000000;stroke-width:5.76"/>
	<text x="3107.36" y="2363.59" style="font-family:'Helvetica';font-size:99.99px;fill:#000000" text-anchor="middle">.8</text>
	<line x1="3795.66" y1="2233.63" x2="3795.66" y2="2273.73" style="stroke:#000000;stroke-width:5.76"/>
	<text x="3795.66" y="2363.59" style="font-family:'Helvetica';font-size:99.99px;fill:#000000" text-anchor="middle">1</text>
	<text x="2074.92" y="2473.60" style="font-family:'Helvetica';font-size:99.99px;fill:#000000" text-anchor="middle">rho_points1</text>
	<rect x="1494.65" y="2558.24" width="1160.53" height="186.37" style="fill:#FFFFFF"/>
	<rect x="1497.53" y="2561.12" width="1154.77" height="180.61" style="fill:none;stroke:#000000;stroke-width:5.76"/>
	<circle cx="1559.87" cy="2651.43" r="26.35" style="fill:#1A476F"/>
	<circle cx="1559.87" cy="2651.43" r="22.03" style="fill:none;stroke:#1A476F;stroke-width:8.64"/>
	<circle cx="2302.49" cy="2651.43" r="26.35" style="fill:#90353B"/>
	<circle cx="2302.49" cy="2651.43" r="22.03" style="fill:none;stroke:#90353B;stroke-width:8.64"/>
	<text x="1641.79" y="2686.46" style="font-family:'Helvetica';font-size:99.99px;fill:#000000">y0_points1</text>
	<text x="2384.54" y="2686.46" style="font-family:'Helvetica';font-size:99.99px;fill:#000000">ytrue</text>
</svg>
